<?xml version="1.0" encoding="UTF-8" standalone="no"?><svg xmlns="http://www.w3.org/2000/svg" xmlns:xlink="http://www.w3.org/1999/xlink" clip-rule="evenodd" stroke-miterlimit="10" viewBox="0 0 1920 1080"><desc>SVG generated by Keynote</desc><defs></defs><g transform="matrix(1.00, 0.00, -0.00, -1.00, 0.0, 1080.0)"><path d="M 0.0 1080.0 L 1920.0 1080.0 L 1920.0 0.0 L 0.0 0.0 Z M 0.0 1080.0 " fill="#FEFFFF"></path><text xml:space="preserve" font-family="Helvetica-Light,Helvetica" font-size="112.0" fill="#000000" transform="matrix(1.00, 0.00, -0.00, -1.00, 380.0, 873.8)">B</text><text xml:space="preserve" font-family="Helvetica-Light,Helvetica" font-size="112.0" fill="#000000" transform="matrix(1.00, 0.00, -0.00, -1.00, 454.7, 873.8)">e</text><text xml:space="preserve" font-family="Helvetica-Light,Helvetica" font-size="112.0" fill="#000000" transform="matrix(1.00, 0.00, -0.00, -1.00, 516.9, 873.8)">t</text><text xml:space="preserve" font-family="Helvetica-Light,Helvetica" font-size="112.0" fill="#000000" transform="matrix(1.00, 0.00, -0.00, -1.00, 548.1, 873.8)">t</text><text xml:space="preserve" font-family="Helvetica-Light,Helvetica" font-size="112.0" fill="#000000" transform="matrix(1.00, 0.00, -0.00, -1.00, 579.2, 873.8)">e</text><text xml:space="preserve" font-family="Helvetica-Light,Helvetica" font-size="112.0" fill="#000000" transform="matrix(1.00, 0.00, -0.00, -1.00, 641.5, 873.8)">r</text><text xml:space="preserve" font-family="Helvetica-Light,Helvetica" font-size="112.0" fill="#000000" transform="matrix(1.00, 0.00, -0.00, -1.00, 668.5, 873.8)">.</text><text xml:space="preserve" font-family="Helvetica-Light,Helvetica" font-size="112.0" fill="#000000" transform="matrix(1.00, 0.00, -0.00, -1.00, 699.6, 873.8)">.</text><text xml:space="preserve" font-family="Helvetica-Light,Helvetica" font-size="112.0" fill="#000000" transform="matrix(1.00, 0.00, -0.00, -1.00, 730.7, 873.8)">.</text><text xml:space="preserve" font-family="Helvetica-Light,Helvetica" font-size="112.0" fill="#000000" transform="matrix(1.00, 0.00, -0.00, -1.00, 761.9, 873.8)">s</text><text xml:space="preserve" font-family="Helvetica-Light,Helvetica" font-size="112.0" fill="#000000" transform="matrix(1.00, 0.00, -0.00, -1.00, 817.9, 873.8)">t</text><text xml:space="preserve" font-family="Helvetica-Light,Helvetica" font-size="112.0" fill="#000000" transform="matrix(1.00, 0.00, -0.00, -1.00, 849.0, 873.8)">r</text><text xml:space="preserve" font-family="Helvetica-Light,Helvetica" font-size="112.0" fill="#000000" transform="matrix(1.00, 0.00, -0.00, -1.00, 884.3, 873.8)">o</text><text xml:space="preserve" font-family="Helvetica-Light,Helvetica" font-size="112.0" fill="#000000" transform="matrix(1.00, 0.00, -0.00, -1.00, 946.6, 873.8)">n</text><text xml:space="preserve" font-family="Helvetica-Light,Helvetica" font-size="112.0" fill="#000000" transform="matrix(1.00, 0.00, -0.00, -1.00, 1008.8, 873.8)">g</text><text xml:space="preserve" font-family="Helvetica-Light,Helvetica" font-size="112.0" fill="#000000" transform="matrix(1.00, 0.00, -0.00, -1.00, 1077.3, 873.8)">e</text><text xml:space="preserve" font-family="Helvetica-Light,Helvetica" font-size="112.0" fill="#000000" transform="matrix(1.00, 0.00, -0.00, -1.00, 1139.5, 873.8)">r</text><text xml:space="preserve" font-family="Helvetica-Light,Helvetica" font-size="112.0" fill="#000000" transform="matrix(1.00, 0.00, -0.00, -1.00, 1166.5, 873.8)">.</text><text xml:space="preserve" font-family="Helvetica-Light,Helvetica" font-size="112.0" fill="#000000" transform="matrix(1.00, 0.00, -0.00, -1.00, 1197.7, 873.8)">.</text><text xml:space="preserve" font-family="Helvetica-Light,Helvetica" font-size="112.0" fill="#000000" transform="matrix(1.00, 0.00, -0.00, -1.00, 1228.8, 873.8)">.</text><text xml:space="preserve" font-family="Helvetica-Light,Helvetica" font-size="112.0" fill="#000000" transform="matrix(1.00, 0.00, -0.00, -1.00, 1259.9, 873.8)">f</text><text xml:space="preserve" font-family="Helvetica-Light,Helvetica" font-size="112.0" fill="#000000" transform="matrix(1.00, 0.00, -0.00, -1.00, 1291.1, 873.8)">a</text><text xml:space="preserve" font-family="Helvetica-Light,Helvetica" font-size="112.0" fill="#000000" transform="matrix(1.00, 0.00, -0.00, -1.00, 1353.3, 873.8)">s</text><text xml:space="preserve" font-family="Helvetica-Light,Helvetica" font-size="112.0" fill="#000000" transform="matrix(1.00, 0.00, -0.00, -1.00, 1409.3, 873.8)">t</text><text xml:space="preserve" font-family="Helvetica-Light,Helvetica" font-size="112.0" fill="#000000" transform="matrix(1.00, 0.00, -0.00, -1.00, 1440.5, 873.8)">e</text><text xml:space="preserve" font-family="Helvetica-Light,Helvetica" font-size="112.0" fill="#000000" transform="matrix(1.00, 0.00, -0.00, -1.00, 1502.8, 873.8)">r</text><text xml:space="preserve" font-family="Helvetica-Light,Helvetica" font-size="39.0" fill="#000000" transform="matrix(1.00, 0.00, -0.00, -1.00, 137.0, 752.5)">•</text><text xml:space="preserve" font-family="Helvetica-Light,Helvetica" font-size="52.0" fill="#000000" transform="matrix(1.00, 0.00, -0.00, -1.00, 187.0, 748.0)">T</text><text xml:space="preserve" font-family="Helvetica-Light,Helvetica" font-size="52.0" fill="#000000" transform="matrix(1.00, 0.00, -0.00, -1.00, 210.1, 748.0)">a</text><text xml:space="preserve" font-family="Helvetica-Light,Helvetica" font-size="52.0" fill="#000000" transform="matrix(1.00, 0.00, -0.00, -1.00, 239.1, 748.0)">b</text><text xml:space="preserve" font-family="Helvetica-Light,Helvetica" font-size="52.0" fill="#000000" transform="matrix(1.00, 0.00, -0.00, -1.00, 270.8, 748.0)"> </text><text xml:space="preserve" font-family="Helvetica-Light,Helvetica" font-size="52.0" fill="#000000" transform="matrix(1.00, 0.00, -0.00, -1.00, 285.3, 748.0)">c</text><text xml:space="preserve" font-family="Helvetica-Light,Helvetica" font-size="52.0" fill="#000000" transform="matrix(1.00, 0.00, -0.00, -1.00, 314.2, 748.0)">o</text><text xml:space="preserve" font-family="Helvetica-Light,Helvetica" font-size="52.0" fill="#000000" transform="matrix(1.00, 0.00, -0.00, -1.00, 343.1, 748.0)">m</text><text xml:space="preserve" font-family="Helvetica-Light,Helvetica" font-size="52.0" fill="#000000" transform="matrix(1.00, 0.00, -0.00, -1.00, 386.4, 748.0)">p</text><text xml:space="preserve" font-family="Helvetica-Light,Helvetica" font-size="52.0" fill="#000000" transform="matrix(1.00, 0.00, -0.00, -1.00, 418.2, 748.0)">l</text><text xml:space="preserve" font-family="Helvetica-Light,Helvetica" font-size="52.0" fill="#000000" transform="matrix(1.00, 0.00, -0.00, -1.00, 429.7, 748.0)">e</text><text xml:space="preserve" font-family="Helvetica-Light,Helvetica" font-size="52.0" fill="#000000" transform="matrix(1.00, 0.00, -0.00, -1.00, 458.6, 748.0)">t</text><text xml:space="preserve" font-family="Helvetica-Light,Helvetica" font-size="52.0" fill="#000000" transform="matrix(1.00, 0.00, -0.00, -1.00, 473.1, 748.0)">i</text><text xml:space="preserve" font-family="Helvetica-Light,Helvetica" font-size="52.0" fill="#000000" transform="matrix(1.00, 0.00, -0.00, -1.00, 484.6, 748.0)">o</text><text xml:space="preserve" font-family="Helvetica-Light,Helvetica" font-size="52.0" fill="#000000" transform="matrix(1.00, 0.00, -0.00, -1.00, 513.6, 748.0)">n</text><text xml:space="preserve" font-family="Helvetica-Light,Helvetica" font-size="52.0" fill="#000000" transform="matrix(1.00, 0.00, -0.00, -1.00, 542.5, 748.0)"> </text><text xml:space="preserve" font-family="Helvetica-Light,Helvetica" font-size="52.0" fill="#000000" transform="matrix(1.00, 0.00, -0.00, -1.00, 556.9, 748.0)">(</text><text xml:space="preserve" font-family="Helvetica-Light,Helvetica" font-size="52.0" fill="#000000" transform="matrix(1.00, 0.00, -0.00, -1.00, 574.2, 748.0)">r</text><text xml:space="preserve" font-family="Helvetica-Light,Helvetica" font-size="52.0" fill="#000000" transform="matrix(1.00, 0.00, -0.00, -1.00, 590.6, 748.0)">e</text><text xml:space="preserve" font-family="Helvetica-Light,Helvetica" font-size="52.0" fill="#000000" transform="matrix(1.00, 0.00, -0.00, -1.00, 619.5, 748.0)">a</text><text xml:space="preserve" font-family="Helvetica-Light,Helvetica" font-size="52.0" fill="#000000" transform="matrix(1.00, 0.00, -0.00, -1.00, 648.4, 748.0)">d</text><text xml:space="preserve" font-family="Helvetica-Light,Helvetica" font-size="52.0" fill="#000000" transform="matrix(1.00, 0.00, -0.00, -1.00, 680.2, 748.0)">l</text><text xml:space="preserve" font-family="Helvetica-Light,Helvetica" font-size="52.0" fill="#000000" transform="matrix(1.00, 0.00, -0.00, -1.00, 691.8, 748.0)">i</text><text xml:space="preserve" font-family="Helvetica-Light,Helvetica" font-size="52.0" fill="#000000" transform="matrix(1.00, 0.00, -0.00, -1.00, 703.3, 748.0)">n</text><text xml:space="preserve" font-family="Helvetica-Light,Helvetica" font-size="52.0" fill="#000000" transform="matrix(1.00, 0.00, -0.00, -1.00, 732.2, 748.0)">e</text><text xml:space="preserve" font-family="Helvetica-Light,Helvetica" font-size="52.0" fill="#000000" transform="matrix(1.00, 0.00, -0.00, -1.00, 761.1, 748.0)"> </text><text xml:space="preserve" font-family="Helvetica-Light,Helvetica" font-size="52.0" fill="#000000" transform="matrix(1.00, 0.00, -0.00, -1.00, 775.6, 748.0)">s</text><text xml:space="preserve" font-family="Helvetica-Light,Helvetica" font-size="52.0" fill="#000000" transform="matrix(1.00, 0.00, -0.00, -1.00, 801.6, 748.0)">u</text><text xml:space="preserve" font-family="Helvetica-Light,Helvetica" font-size="52.0" fill="#000000" transform="matrix(1.00, 0.00, -0.00, -1.00, 830.5, 748.0)">p</text><text xml:space="preserve" font-family="Helvetica-Light,Helvetica" font-size="52.0" fill="#000000" transform="matrix(1.00, 0.00, -0.00, -1.00, 862.3, 748.0)">p</text><text xml:space="preserve" font-family="Helvetica-Light,Helvetica" font-size="52.0" fill="#000000" transform="matrix(1.00, 0.00, -0.00, -1.00, 894.0, 748.0)">o</text><text xml:space="preserve" font-family="Helvetica-Light,Helvetica" font-size="52.0" fill="#000000" transform="matrix(1.00, 0.00, -0.00, -1.00, 923.0, 748.0)">r</text><text xml:space="preserve" font-family="Helvetica-Light,Helvetica" font-size="52.0" fill="#000000" transform="matrix(1.00, 0.00, -0.00, -1.00, 941.2, 748.0)">t</text><text xml:space="preserve" font-family="Helvetica-Light,Helvetica" font-size="52.0" fill="#000000" transform="matrix(1.00, 0.00, -0.00, -1.00, 955.7, 748.0)">)</text><text xml:space="preserve" font-family="Helvetica-Light,Helvetica" font-size="52.0" fill="#000000" transform="matrix(1.00, 0.00, -0.00, -1.00, 973.0, 748.0)"> </text><text xml:space="preserve" font-family="Helvetica-Light,Helvetica" font-size="39.0" fill="#000000" transform="matrix(1.00, 0.00, -0.00, -1.00, 137.0, 631.1)">•</text><text xml:space="preserve" font-family="Helvetica-Light,Helvetica" font-size="52.0" fill="#000000" transform="matrix(1.00, 0.00, -0.00, -1.00, 187.0, 627.0)">W</text><text xml:space="preserve" font-family="Helvetica-Light,Helvetica" font-size="52.0" fill="#000000" transform="matrix(1.00, 0.00, -0.00, -1.00, 233.2, 627.0)">i</text><text xml:space="preserve" font-family="Helvetica-Light,Helvetica" font-size="52.0" fill="#000000" transform="matrix(1.00, 0.00, -0.00, -1.00, 244.8, 627.0)">l</text><text xml:space="preserve" font-family="Helvetica-Light,Helvetica" font-size="52.0" fill="#000000" transform="matrix(1.00, 0.00, -0.00, -1.00, 256.3, 627.0)">d</text><text xml:space="preserve" font-family="Helvetica-Light,Helvetica" font-size="52.0" fill="#000000" transform="matrix(1.00, 0.00, -0.00, -1.00, 288.1, 627.0)">c</text><text xml:space="preserve" font-family="Helvetica-Light,Helvetica" font-size="52.0" fill="#000000" transform="matrix(1.00, 0.00, -0.00, -1.00, 317.0, 627.0)">a</text><text xml:space="preserve" font-family="Helvetica-Light,Helvetica" font-size="52.0" fill="#000000" transform="matrix(1.00, 0.00, -0.00, -1.00, 345.9, 627.0)">r</text><text xml:space="preserve" font-family="Helvetica-Light,Helvetica" font-size="52.0" fill="#000000" transform="matrix(1.00, 0.00, -0.00, -1.00, 362.3, 627.0)">d</text><text xml:space="preserve" font-family="Helvetica-Light,Helvetica" font-size="52.0" fill="#000000" transform="matrix(1.00, 0.00, -0.00, -1.00, 394.1, 627.0)"> </text><text xml:space="preserve" font-family="Helvetica-Light,Helvetica" font-size="52.0" fill="#000000" transform="matrix(1.00, 0.00, -0.00, -1.00, 408.5, 627.0)">(</text><text xml:space="preserve" font-family="Courier,Courier" font-size="52.0" fill="#000000" transform="matrix(1.00, 0.00, -0.00, -1.00, 425.8, 627.0)">*</text><text xml:space="preserve" font-family="Helvetica-Light,Helvetica" font-size="52.0" fill="#000000" transform="matrix(1.00, 0.00, -0.00, -1.00, 457.0, 627.0)">)</text><text xml:space="preserve" font-family="Helvetica-Light,Helvetica" font-size="52.0" fill="#000000" transform="matrix(1.00, 0.00, -0.00, -1.00, 474.4, 627.0)"> </text><text xml:space="preserve" font-family="Helvetica-Light,Helvetica" font-size="39.0" fill="#000000" transform="matrix(1.00, 0.00, -0.00, -1.00, 137.0, 509.6)">•</text><text xml:space="preserve" font-family="Helvetica-Light,Helvetica" font-size="52.0" fill="#000000" transform="matrix(1.00, 0.00, -0.00, -1.00, 187.0, 505.1)">O</text><text xml:space="preserve" font-family="Helvetica-Light,Helvetica" font-size="52.0" fill="#000000" transform="matrix(1.00, 0.00, -0.00, -1.00, 227.5, 505.1)">p</text><text xml:space="preserve" font-family="Helvetica-Light,Helvetica" font-size="52.0" fill="#000000" transform="matrix(1.00, 0.00, -0.00, -1.00, 259.2, 505.1)">t</text><text xml:space="preserve" font-family="Helvetica-Light,Helvetica" font-size="52.0" fill="#000000" transform="matrix(1.00, 0.00, -0.00, -1.00, 273.7, 505.1)">i</text><text xml:space="preserve" font-family="Helvetica-Light,Helvetica" font-size="52.0" fill="#000000" transform="matrix(1.00, 0.00, -0.00, -1.00, 285.2, 505.1)">o</text><text xml:space="preserve" font-family="Helvetica-Light,Helvetica" font-size="52.0" fill="#000000" transform="matrix(1.00, 0.00, -0.00, -1.00, 314.1, 505.1)">n</text><text xml:space="preserve" font-family="Helvetica-Light,Helvetica" font-size="52.0" fill="#000000" transform="matrix(1.00, 0.00, -0.00, -1.00, 343.1, 505.1)">-</text><text xml:space="preserve" font-family="Helvetica-Light,Helvetica" font-size="52.0" fill="#000000" transform="matrix(1.00, 0.00, -0.00, -1.00, 360.4, 505.1)">a</text><text xml:space="preserve" font-family="Helvetica-Light,Helvetica" font-size="52.0" fill="#000000" transform="matrix(1.00, 0.00, -0.00, -1.00, 389.3, 505.1)">r</text><text xml:space="preserve" font-family="Helvetica-Light,Helvetica" font-size="52.0" fill="#000000" transform="matrix(1.00, 0.00, -0.00, -1.00, 406.6, 505.1)">r</text><text xml:space="preserve" font-family="Helvetica-Light,Helvetica" font-size="52.0" fill="#000000" transform="matrix(1.00, 0.00, -0.00, -1.00, 423.0, 505.1)">o</text><text xml:space="preserve" font-family="Helvetica-Light,Helvetica" font-size="52.0" fill="#000000" transform="matrix(1.00, 0.00, -0.00, -1.00, 451.9, 505.1)">w</text><text xml:space="preserve" font-family="Helvetica-Light,Helvetica" font-size="52.0" fill="#000000" transform="matrix(1.00, 0.00, -0.00, -1.00, 489.4, 505.1)"> </text><text xml:space="preserve" font-family="Helvetica-Light,Helvetica" font-size="52.0" fill="#000000" transform="matrix(1.00, 0.00, -0.00, -1.00, 503.9, 505.1)">n</text><text xml:space="preserve" font-family="Helvetica-Light,Helvetica" font-size="52.0" fill="#000000" transform="matrix(1.00, 0.00, -0.00, -1.00, 532.8, 505.1)">a</text><text xml:space="preserve" font-family="Helvetica-Light,Helvetica" font-size="52.0" fill="#000000" transform="matrix(1.00, 0.00, -0.00, -1.00, 561.7, 505.1)">v</text><text xml:space="preserve" font-family="Helvetica-Light,Helvetica" font-size="52.0" fill="#000000" transform="matrix(1.00, 0.00, -0.00, -1.00, 587.7, 505.1)">i</text><text xml:space="preserve" font-family="Helvetica-Light,Helvetica" font-size="52.0" fill="#000000" transform="matrix(1.00, 0.00, -0.00, -1.00, 599.3, 505.1)">g</text><text xml:space="preserve" font-family="Helvetica-Light,Helvetica" font-size="52.0" fill="#000000" transform="matrix(1.00, 0.00, -0.00, -1.00, 631.0, 505.1)">a</text><text xml:space="preserve" font-family="Helvetica-Light,Helvetica" font-size="52.0" fill="#000000" transform="matrix(1.00, 0.00, -0.00, -1.00, 659.9, 505.1)">t</text><text xml:space="preserve" font-family="Helvetica-Light,Helvetica" font-size="52.0" fill="#000000" transform="matrix(1.00, 0.00, -0.00, -1.00, 674.4, 505.1)">i</text><text xml:space="preserve" font-family="Helvetica-Light,Helvetica" font-size="52.0" fill="#000000" transform="matrix(1.00, 0.00, -0.00, -1.00, 685.9, 505.1)">o</text><text xml:space="preserve" font-family="Helvetica-Light,Helvetica" font-size="52.0" fill="#000000" transform="matrix(1.00, 0.00, -0.00, -1.00, 714.9, 505.1)">n</text><text xml:space="preserve" font-family="Helvetica-Light,Helvetica" font-size="52.0" fill="#000000" transform="matrix(1.00, 0.00, -0.00, -1.00, 743.8, 505.1)"> </text><text xml:space="preserve" font-family="Helvetica-Light,Helvetica" font-size="52.0" fill="#000000" transform="matrix(1.00, 0.00, -0.00, -1.00, 758.2, 505.1)">f</text><text xml:space="preserve" font-family="Helvetica-Light,Helvetica" font-size="52.0" fill="#000000" transform="matrix(1.00, 0.00, -0.00, -1.00, 772.7, 505.1)">o</text><text xml:space="preserve" font-family="Helvetica-Light,Helvetica" font-size="52.0" fill="#000000" transform="matrix(1.00, 0.00, -0.00, -1.00, 801.6, 505.1)">r</text><text xml:space="preserve" font-family="Helvetica-Light,Helvetica" font-size="52.0" fill="#000000" transform="matrix(1.00, 0.00, -0.00, -1.00, 818.9, 505.1)"> </text><text xml:space="preserve" font-family="Helvetica-Light,Helvetica" font-size="52.0" fill="#000000" transform="matrix(1.00, 0.00, -0.00, -1.00, 833.4, 505.1)">j</text><text xml:space="preserve" font-family="Helvetica-Light,Helvetica" font-size="52.0" fill="#000000" transform="matrix(1.00, 0.00, -0.00, -1.00, 844.9, 505.1)">u</text><text xml:space="preserve" font-family="Helvetica-Light,Helvetica" font-size="52.0" fill="#000000" transform="matrix(1.00, 0.00, -0.00, -1.00, 873.8, 505.1)">m</text><text xml:space="preserve" font-family="Helvetica-Light,Helvetica" font-size="52.0" fill="#000000" transform="matrix(1.00, 0.00, -0.00, -1.00, 917.1, 505.1)">p</text><text xml:space="preserve" font-family="Helvetica-Light,Helvetica" font-size="52.0" fill="#000000" transform="matrix(1.00, 0.00, -0.00, -1.00, 948.9, 505.1)">i</text><text xml:space="preserve" font-family="Helvetica-Light,Helvetica" font-size="52.0" fill="#000000" transform="matrix(1.00, 0.00, -0.00, -1.00, 960.4, 505.1)">n</text><text xml:space="preserve" font-family="Helvetica-Light,Helvetica" font-size="52.0" fill="#000000" transform="matrix(1.00, 0.00, -0.00, -1.00, 989.4, 505.1)">g</text><text xml:space="preserve" font-family="Helvetica-Light,Helvetica" font-size="52.0" fill="#000000" transform="matrix(1.00, 0.00, -0.00, -1.00, 1021.1, 505.1)"> </text><text xml:space="preserve" font-family="Helvetica-Light,Helvetica" font-size="52.0" fill="#000000" transform="matrix(1.00, 0.00, -0.00, -1.00, 1035.6, 505.1)">b</text><text xml:space="preserve" font-family="Helvetica-Light,Helvetica" font-size="52.0" fill="#000000" transform="matrix(1.00, 0.00, -0.00, -1.00, 1067.4, 505.1)">e</text><text xml:space="preserve" font-family="Helvetica-Light,Helvetica" font-size="52.0" fill="#000000" transform="matrix(1.00, 0.00, -0.00, -1.00, 1096.3, 505.1)">t</text><text xml:space="preserve" font-family="Helvetica-Light,Helvetica" font-size="52.0" fill="#000000" transform="matrix(1.00, 0.00, -0.00, -1.00, 1110.7, 505.1)">w</text><text xml:space="preserve" font-family="Helvetica-Light,Helvetica" font-size="52.0" fill="#000000" transform="matrix(1.00, 0.00, -0.00, -1.00, 1148.3, 505.1)">e</text><text xml:space="preserve" font-family="Helvetica-Light,Helvetica" font-size="52.0" fill="#000000" transform="matrix(1.00, 0.00, -0.00, -1.00, 1177.2, 505.1)">e</text><text xml:space="preserve" font-family="Helvetica-Light,Helvetica" font-size="52.0" fill="#000000" transform="matrix(1.00, 0.00, -0.00, -1.00, 1206.1, 505.1)">n</text><text xml:space="preserve" font-family="Helvetica-Light,Helvetica" font-size="52.0" fill="#000000" transform="matrix(1.00, 0.00, -0.00, -1.00, 1235.0, 505.1)"> </text><text xml:space="preserve" font-family="Helvetica-Light,Helvetica" font-size="52.0" fill="#000000" transform="matrix(1.00, 0.00, -0.00, -1.00, 1249.5, 505.1)">w</text><text xml:space="preserve" font-family="Helvetica-Light,Helvetica" font-size="52.0" fill="#000000" transform="matrix(1.00, 0.00, -0.00, -1.00, 1287.0, 505.1)">o</text><text xml:space="preserve" font-family="Helvetica-Light,Helvetica" font-size="52.0" fill="#000000" transform="matrix(1.00, 0.00, -0.00, -1.00, 1315.9, 505.1)">r</text><text xml:space="preserve" font-family="Helvetica-Light,Helvetica" font-size="52.0" fill="#000000" transform="matrix(1.00, 0.00, -0.00, -1.00, 1332.3, 505.1)">d</text><text xml:space="preserve" font-family="Helvetica-Light,Helvetica" font-size="52.0" fill="#000000" transform="matrix(1.00, 0.00, -0.00, -1.00, 1364.1, 505.1)">s</text><text xml:space="preserve" font-family="Helvetica-Light,Helvetica" font-size="52.0" fill="#000000" transform="matrix(1.00, 0.00, -0.00, -1.00, 1390.1, 505.1)"> </text><text xml:space="preserve" font-family="Helvetica-Light,Helvetica" font-size="39.0" fill="#000000" transform="matrix(1.00, 0.00, -0.00, -1.00, 137.0, 388.2)">•</text><text xml:space="preserve" font-family="Courier,Courier" font-size="52.0" fill="#000000" transform="matrix(1.00, 0.00, -0.00, -1.00, 187.0, 384.1)">^</text><text xml:space="preserve" font-family="Courier,Courier" font-size="52.0" fill="#000000" transform="matrix(1.00, 0.00, -0.00, -1.00, 218.2, 384.1)">A</text><text xml:space="preserve" font-family="Helvetica-Light,Helvetica" font-size="52.0" fill="#000000" transform="matrix(1.00, 0.00, -0.00, -1.00, 249.4, 384.1)">,</text><text xml:space="preserve" font-family="Helvetica-Light,Helvetica" font-size="52.0" fill="#000000" transform="matrix(1.00, 0.00, -0.00, -1.00, 263.9, 384.1)"> </text><text xml:space="preserve" font-family="Courier,Courier" font-size="52.0" fill="#000000" transform="matrix(1.00, 0.00, -0.00, -1.00, 278.3, 384.1)">^</text><text xml:space="preserve" font-family="Courier,Courier" font-size="52.0" fill="#000000" transform="matrix(1.00, 0.00, -0.00, -1.00, 309.5, 384.1)">E</text><text xml:space="preserve" font-family="Helvetica-Light,Helvetica" font-size="52.0" fill="#000000" transform="matrix(1.00, 0.00, -0.00, -1.00, 340.7, 384.1)">,</text><text xml:space="preserve" font-family="Helvetica-Light,Helvetica" font-size="52.0" fill="#000000" transform="matrix(1.00, 0.00, -0.00, -1.00, 355.2, 384.1)"> </text><text xml:space="preserve" font-family="Courier,Courier" font-size="52.0" fill="#000000" transform="matrix(1.00, 0.00, -0.00, -1.00, 369.6, 384.1)">^</text><text xml:space="preserve" font-family="Courier,Courier" font-size="52.0" fill="#000000" transform="matrix(1.00, 0.00, -0.00, -1.00, 400.8, 384.1)">C</text><text xml:space="preserve" font-family="Helvetica-Light,Helvetica" font-size="52.0" fill="#000000" transform="matrix(1.00, 0.00, -0.00, -1.00, 432.1, 384.1)">,</text><text xml:space="preserve" font-family="Helvetica-Light,Helvetica" font-size="52.0" fill="#000000" transform="matrix(1.00, 0.00, -0.00, -1.00, 446.5, 384.1)"> </text><text xml:space="preserve" font-family="Helvetica-Light,Helvetica" font-size="52.0" fill="#000000" transform="matrix(1.00, 0.00, -0.00, -1.00, 461.0, 384.1)">a</text><text xml:space="preserve" font-family="Helvetica-Light,Helvetica" font-size="52.0" fill="#000000" transform="matrix(1.00, 0.00, -0.00, -1.00, 489.9, 384.1)">n</text><text xml:space="preserve" font-family="Helvetica-Light,Helvetica" font-size="52.0" fill="#000000" transform="matrix(1.00, 0.00, -0.00, -1.00, 518.8, 384.1)">d</text><text xml:space="preserve" font-family="Helvetica-Light,Helvetica" font-size="52.0" fill="#000000" transform="matrix(1.00, 0.00, -0.00, -1.00, 550.6, 384.1)"> </text><text xml:space="preserve" font-family="Courier,Courier" font-size="52.0" fill="#000000" transform="matrix(1.00, 0.00, -0.00, -1.00, 565.0, 384.1)">^</text><text xml:space="preserve" font-family="Courier,Courier" font-size="52.0" fill="#000000" transform="matrix(1.00, 0.00, -0.00, -1.00, 596.2, 384.1)">D</text><text xml:space="preserve" font-family="Helvetica-Light,Helvetica" font-size="52.0" fill="#000000" transform="matrix(1.00, 0.00, -0.00, -1.00, 627.4, 384.1)"> </text><text xml:space="preserve" font-family="Helvetica-Light,Helvetica" font-size="39.0" fill="#000000" transform="matrix(1.00, 0.00, -0.00, -1.00, 137.0, 266.4)">•</text><text xml:space="preserve" font-family="Courier,Courier" font-size="52.0" fill="#000000" transform="matrix(1.00, 0.00, -0.00, -1.00, 187.0, 262.3)">!</text><text xml:space="preserve" font-family="Courier,Courier" font-size="52.0" fill="#000000" transform="matrix(1.00, 0.00, -0.00, -1.00, 218.2, 262.3)">!</text><text xml:space="preserve" font-family="Helvetica-Light,Helvetica" font-size="52.0" fill="#000000" transform="matrix(1.00, 0.00, -0.00, -1.00, 249.4, 262.3)"> </text><text xml:space="preserve" font-family="Helvetica-Light,Helvetica" font-size="52.0" fill="#000000" transform="matrix(1.00, 0.00, -0.00, -1.00, 263.9, 262.3)">(</text><text xml:space="preserve" font-family="Helvetica-Light,Helvetica" font-size="52.0" fill="#000000" transform="matrix(1.00, 0.00, -0.00, -1.00, 281.2, 262.3)">R</text><text xml:space="preserve" font-family="Helvetica-Light,Helvetica" font-size="52.0" fill="#000000" transform="matrix(1.00, 0.00, -0.00, -1.00, 315.9, 262.3)">e</text><text xml:space="preserve" font-family="Helvetica-Light,Helvetica" font-size="52.0" fill="#000000" transform="matrix(1.00, 0.00, -0.00, -1.00, 344.8, 262.3)">p</text><text xml:space="preserve" font-family="Helvetica-Light,Helvetica" font-size="52.0" fill="#000000" transform="matrix(1.00, 0.00, -0.00, -1.00, 376.6, 262.3)">e</text><text xml:space="preserve" font-family="Helvetica-Light,Helvetica" font-size="52.0" fill="#000000" transform="matrix(1.00, 0.00, -0.00, -1.00, 405.5, 262.3)">a</text><text xml:space="preserve" font-family="Helvetica-Light,Helvetica" font-size="52.0" fill="#000000" transform="matrix(1.00, 0.00, -0.00, -1.00, 434.4, 262.3)">t</text><text xml:space="preserve" font-family="Helvetica-Light,Helvetica" font-size="52.0" fill="#000000" transform="matrix(1.00, 0.00, -0.00, -1.00, 448.8, 262.3)"> </text><text xml:space="preserve" font-family="Helvetica-Light,Helvetica" font-size="52.0" fill="#000000" transform="matrix(1.00, 0.00, -0.00, -1.00, 463.3, 262.3)">t</text><text xml:space="preserve" font-family="Helvetica-Light,Helvetica" font-size="52.0" fill="#000000" transform="matrix(1.00, 0.00, -0.00, -1.00, 477.7, 262.3)">h</text><text xml:space="preserve" font-family="Helvetica-Light,Helvetica" font-size="52.0" fill="#000000" transform="matrix(1.00, 0.00, -0.00, -1.00, 506.7, 262.3)">e</text><text xml:space="preserve" font-family="Helvetica-Light,Helvetica" font-size="52.0" fill="#000000" transform="matrix(1.00, 0.00, -0.00, -1.00, 535.6, 262.3)"> </text><text xml:space="preserve" font-family="Helvetica-Light,Helvetica" font-size="52.0" fill="#000000" transform="matrix(1.00, 0.00, -0.00, -1.00, 550.0, 262.3)">l</text><text xml:space="preserve" font-family="Helvetica-Light,Helvetica" font-size="52.0" fill="#000000" transform="matrix(1.00, 0.00, -0.00, -1.00, 561.6, 262.3)">a</text><text xml:space="preserve" font-family="Helvetica-Light,Helvetica" font-size="52.0" fill="#000000" transform="matrix(1.00, 0.00, -0.00, -1.00, 590.5, 262.3)">s</text><text xml:space="preserve" font-family="Helvetica-Light,Helvetica" font-size="52.0" fill="#000000" transform="matrix(1.00, 0.00, -0.00, -1.00, 616.5, 262.3)">t</text><text xml:space="preserve" font-family="Helvetica-Light,Helvetica" font-size="52.0" fill="#000000" transform="matrix(1.00, 0.00, -0.00, -1.00, 630.9, 262.3)"> </text><text xml:space="preserve" font-family="Helvetica-Light,Helvetica" font-size="52.0" fill="#000000" transform="matrix(1.00, 0.00, -0.00, -1.00, 645.4, 262.3)">c</text><text xml:space="preserve" font-family="Helvetica-Light,Helvetica" font-size="52.0" fill="#000000" transform="matrix(1.00, 0.00, -0.00, -1.00, 674.3, 262.3)">o</text><text xml:space="preserve" font-family="Helvetica-Light,Helvetica" font-size="52.0" fill="#000000" transform="matrix(1.00, 0.00, -0.00, -1.00, 703.2, 262.3)">m</text><text xml:space="preserve" font-family="Helvetica-Light,Helvetica" font-size="52.0" fill="#000000" transform="matrix(1.00, 0.00, -0.00, -1.00, 746.5, 262.3)">m</text><text xml:space="preserve" font-family="Helvetica-Light,Helvetica" font-size="52.0" fill="#000000" transform="matrix(1.00, 0.00, -0.00, -1.00, 789.8, 262.3)">a</text><text xml:space="preserve" font-family="Helvetica-Light,Helvetica" font-size="52.0" fill="#000000" transform="matrix(1.00, 0.00, -0.00, -1.00, 818.8, 262.3)">n</text><text xml:space="preserve" font-family="Helvetica-Light,Helvetica" font-size="52.0" fill="#000000" transform="matrix(1.00, 0.00, -0.00, -1.00, 847.7, 262.3)">d</text><text xml:space="preserve" font-family="Helvetica-Light,Helvetica" font-size="52.0" fill="#000000" transform="matrix(1.00, 0.00, -0.00, -1.00, 879.4, 262.3)">,</text><text xml:space="preserve" font-family="Helvetica-Light,Helvetica" font-size="52.0" fill="#000000" transform="matrix(1.00, 0.00, -0.00, -1.00, 893.9, 262.3)"> </text><text xml:space="preserve" font-family="Helvetica-Light,Helvetica" font-size="52.0" fill="#000000" transform="matrix(1.00, 0.00, -0.00, -1.00, 908.4, 262.3)">e</text><text xml:space="preserve" font-family="Helvetica-Light,Helvetica" font-size="52.0" fill="#000000" transform="matrix(1.00, 0.00, -0.00, -1.00, 937.3, 262.3)">.</text><text xml:space="preserve" font-family="Helvetica-Light,Helvetica" font-size="52.0" fill="#000000" transform="matrix(1.00, 0.00, -0.00, -1.00, 951.7, 262.3)">g</text><text xml:space="preserve" font-family="Helvetica-Light,Helvetica" font-size="52.0" fill="#000000" transform="matrix(1.00, 0.00, -0.00, -1.00, 983.5, 262.3)">.</text><text xml:space="preserve" font-family="Helvetica-Light,Helvetica" font-size="52.0" fill="#000000" transform="matrix(1.00, 0.00, -0.00, -1.00, 998.0, 262.3)">,</text><text xml:space="preserve" font-family="Helvetica-Light,Helvetica" font-size="52.0" fill="#000000" transform="matrix(1.00, 0.00, -0.00, -1.00, 1012.4, 262.3)"> </text><text xml:space="preserve" font-family="Courier,Courier" font-size="52.0" fill="#000000" transform="matrix(1.00, 0.00, -0.00, -1.00, 1026.9, 262.3)">s</text><text xml:space="preserve" font-family="Courier,Courier" font-size="52.0" fill="#000000" transform="matrix(1.00, 0.00, -0.00, -1.00, 1058.1, 262.3)">u</text><text xml:space="preserve" font-family="Courier,Courier" font-size="52.0" fill="#000000" transform="matrix(1.00, 0.00, -0.00, -1.00, 1089.3, 262.3)">d</text><text xml:space="preserve" font-family="Courier,Courier" font-size="52.0" fill="#000000" transform="matrix(1.00, 0.00, -0.00, -1.00, 1120.5, 262.3)">o</text><text xml:space="preserve" font-family="Courier,Courier" font-size="52.0" fill="#000000" transform="matrix(1.00, 0.00, -0.00, -1.00, 1151.7, 262.3)"> </text><text xml:space="preserve" font-family="Courier,Courier" font-size="52.0" fill="#000000" transform="matrix(1.00, 0.00, -0.00, -1.00, 1182.9, 262.3)">!</text><text xml:space="preserve" font-family="Courier,Courier" font-size="52.0" fill="#000000" transform="matrix(1.00, 0.00, -0.00, -1.00, 1214.1, 262.3)">!</text><text xml:space="preserve" font-family="Helvetica-Light,Helvetica" font-size="52.0" fill="#000000" transform="matrix(1.00, 0.00, -0.00, -1.00, 1245.3, 262.3)">)</text><text xml:space="preserve" font-family="Helvetica-Light,Helvetica" font-size="52.0" fill="#000000" transform="matrix(1.00, 0.00, -0.00, -1.00, 1262.6, 262.3)"> </text><text xml:space="preserve" font-family="Helvetica-Light,Helvetica" font-size="39.0" fill="#000000" transform="matrix(1.00, 0.00, -0.00, -1.00, 137.0, 144.5)">•</text><text xml:space="preserve" font-family="Courier,Courier" font-size="52.0" fill="#000000" transform="matrix(1.00, 0.00, -0.00, -1.00, 187.0, 140.4)">^</text><text xml:space="preserve" font-family="Courier,Courier" font-size="52.0" fill="#000000" transform="matrix(1.00, 0.00, -0.00, -1.00, 218.2, 140.4)">W</text><text xml:space="preserve" font-family="Helvetica-Light,Helvetica" font-size="52.0" fill="#000000" transform="matrix(1.00, 0.00, -0.00, -1.00, 249.4, 140.4)"> </text><text xml:space="preserve" font-family="Helvetica-Light,Helvetica" font-size="52.0" fill="#000000" transform="matrix(1.00, 0.00, -0.00, -1.00, 263.9, 140.4)">(</text><text xml:space="preserve" font-family="Helvetica-Light,Helvetica" font-size="52.0" fill="#000000" transform="matrix(1.00, 0.00, -0.00, -1.00, 281.2, 140.4)">D</text><text xml:space="preserve" font-family="Helvetica-Light,Helvetica" font-size="52.0" fill="#000000" transform="matrix(1.00, 0.00, -0.00, -1.00, 318.7, 140.4)">e</text><text xml:space="preserve" font-family="Helvetica-Light,Helvetica" font-size="52.0" fill="#000000" transform="matrix(1.00, 0.00, -0.00, -1.00, 347.6, 140.4)">l</text><text xml:space="preserve" font-family="Helvetica-Light,Helvetica" font-size="52.0" fill="#000000" transform="matrix(1.00, 0.00, -0.00, -1.00, 359.2, 140.4)">e</text><text xml:space="preserve" font-family="Helvetica-Light,Helvetica" font-size="52.0" fill="#000000" transform="matrix(1.00, 0.00, -0.00, -1.00, 388.1, 140.4)">t</text><text xml:space="preserve" font-family="Helvetica-Light,Helvetica" font-size="52.0" fill="#000000" transform="matrix(1.00, 0.00, -0.00, -1.00, 402.6, 140.4)">e</text><text xml:space="preserve" font-family="Helvetica-Light,Helvetica" font-size="52.0" fill="#000000" transform="matrix(1.00, 0.00, -0.00, -1.00, 431.5, 140.4)"> </text><text xml:space="preserve" font-family="Helvetica-Light,Helvetica" font-size="52.0" fill="#000000" transform="matrix(1.00, 0.00, -0.00, -1.00, 445.9, 140.4)">w</text><text xml:space="preserve" font-family="Helvetica-Light,Helvetica" font-size="52.0" fill="#000000" transform="matrix(1.00, 0.00, -0.00, -1.00, 483.5, 140.4)">o</text><text xml:space="preserve" font-family="Helvetica-Light,Helvetica" font-size="52.0" fill="#000000" transform="matrix(1.00, 0.00, -0.00, -1.00, 512.4, 140.4)">r</text><text xml:space="preserve" font-family="Helvetica-Light,Helvetica" font-size="52.0" fill="#000000" transform="matrix(1.00, 0.00, -0.00, -1.00, 528.8, 140.4)">d</text><text xml:space="preserve" font-family="Helvetica-Light,Helvetica" font-size="52.0" fill="#000000" transform="matrix(1.00, 0.00, -0.00, -1.00, 560.5, 140.4)"> </text><text xml:space="preserve" font-family="Helvetica-Light,Helvetica" font-size="52.0" fill="#000000" transform="matrix(1.00, 0.00, -0.00, -1.00, 575.0, 140.4)">b</text><text xml:space="preserve" font-family="Helvetica-Light,Helvetica" font-size="52.0" fill="#000000" transform="matrix(1.00, 0.00, -0.00, -1.00, 606.8, 140.4)">e</text><text xml:space="preserve" font-family="Helvetica-Light,Helvetica" font-size="52.0" fill="#000000" transform="matrix(1.00, 0.00, -0.00, -1.00, 635.7, 140.4)">h</text><text xml:space="preserve" font-family="Helvetica-Light,Helvetica" font-size="52.0" fill="#000000" transform="matrix(1.00, 0.00, -0.00, -1.00, 664.6, 140.4)">i</text><text xml:space="preserve" font-family="Helvetica-Light,Helvetica" font-size="52.0" fill="#000000" transform="matrix(1.00, 0.00, -0.00, -1.00, 676.1, 140.4)">n</text><text xml:space="preserve" font-family="Helvetica-Light,Helvetica" font-size="52.0" fill="#000000" transform="matrix(1.00, 0.00, -0.00, -1.00, 705.0, 140.4)">d</text><text xml:space="preserve" font-family="Helvetica-Light,Helvetica" font-size="52.0" fill="#000000" transform="matrix(1.00, 0.00, -0.00, -1.00, 736.8, 140.4)"> </text><text xml:space="preserve" font-family="Helvetica-Light,Helvetica" font-size="52.0" fill="#000000" transform="matrix(1.00, 0.00, -0.00, -1.00, 751.3, 140.4)">c</text><text xml:space="preserve" font-family="Helvetica-Light,Helvetica" font-size="52.0" fill="#000000" transform="matrix(1.00, 0.00, -0.00, -1.00, 780.2, 140.4)">u</text><text xml:space="preserve" font-family="Helvetica-Light,Helvetica" font-size="52.0" fill="#000000" transform="matrix(1.00, 0.00, -0.00, -1.00, 809.1, 140.4)">r</text><text xml:space="preserve" font-family="Helvetica-Light,Helvetica" font-size="52.0" fill="#000000" transform="matrix(1.00, 0.00, -0.00, -1.00, 826.4, 140.4)">s</text><text xml:space="preserve" font-family="Helvetica-Light,Helvetica" font-size="52.0" fill="#000000" transform="matrix(1.00, 0.00, -0.00, -1.00, 852.4, 140.4)">o</text><text xml:space="preserve" font-family="Helvetica-Light,Helvetica" font-size="52.0" fill="#000000" transform="matrix(1.00, 0.00, -0.00, -1.00, 881.3, 140.4)">r</text><text xml:space="preserve" font-family="Helvetica-Light,Helvetica" font-size="52.0" fill="#000000" transform="matrix(1.00, 0.00, -0.00, -1.00, 898.6, 140.4)">)</text></g></svg>