<?xml version="1.0" encoding="UTF-8" standalone="no"?><svg xmlns="http://www.w3.org/2000/svg" xmlns:xlink="http://www.w3.org/1999/xlink" clip-rule="evenodd" stroke-miterlimit="10" viewBox="0 0 1920 1080"><desc>SVG generated by Keynote</desc><defs></defs><g transform="matrix(1.00, 0.00, -0.00, -1.00, 0.0, 1080.0)"><path d="M 0.0 1080.0 L 1920.0 1080.0 L 1920.0 0.0 L 0.0 0.0 Z M 0.0 1080.0 " fill="#FEFFFF"></path><text xml:space="preserve" font-family="Courier,Courier" font-size="112.0" fill="#000000" transform="matrix(1.00, 0.00, -0.00, -1.00, 735.8, 874.8)">a</text><text xml:space="preserve" font-family="Courier,Courier" font-size="112.0" fill="#000000" transform="matrix(1.00, 0.00, -0.00, -1.00, 803.0, 874.8)">w</text><text xml:space="preserve" font-family="Courier,Courier" font-size="112.0" fill="#000000" transform="matrix(1.00, 0.00, -0.00, -1.00, 870.2, 874.8)">k</text><text xml:space="preserve" font-family="Helvetica-Light,Helvetica" font-size="112.0" fill="#000000" transform="matrix(1.00, 0.00, -0.00, -1.00, 937.4, 874.8)">w</text><text xml:space="preserve" font-family="Helvetica-Light,Helvetica" font-size="112.0" fill="#000000" transform="matrix(1.00, 0.00, -0.00, -1.00, 1018.3, 874.8)">a</text><text xml:space="preserve" font-family="Helvetica-Light,Helvetica" font-size="112.0" fill="#000000" transform="matrix(1.00, 0.00, -0.00, -1.00, 1080.5, 874.8)">r</text><text xml:space="preserve" font-family="Helvetica-Light,Helvetica" font-size="112.0" fill="#000000" transform="matrix(1.00, 0.00, -0.00, -1.00, 1115.8, 874.8)">d</text><text xml:space="preserve" font-family="Helvetica-Light,Helvetica" font-size="31.6" fill="#000000" transform="matrix(1.00, 0.00, -0.00, -1.00, 137.0, 773.4)">•</text><text xml:space="preserve" font-family="Courier,Courier" font-size="42.1" fill="#000000" transform="matrix(1.00, 0.00, -0.00, -1.00, 177.5, 769.7)">a</text><text xml:space="preserve" font-family="Courier,Courier" font-size="42.1" fill="#000000" transform="matrix(1.00, 0.00, -0.00, -1.00, 202.8, 769.7)">w</text><text xml:space="preserve" font-family="Courier,Courier" font-size="42.1" fill="#000000" transform="matrix(1.00, 0.00, -0.00, -1.00, 228.1, 769.7)">k</text><text xml:space="preserve" font-family="Courier,Courier" font-size="42.1" fill="#000000" transform="matrix(1.00, 0.00, -0.00, -1.00, 253.3, 769.7)"> </text><text xml:space="preserve" font-family="Courier,Courier" font-size="42.1" fill="#000000" transform="matrix(1.00, 0.00, -0.00, -1.00, 278.6, 769.7)">'</text><text xml:space="preserve" font-family="Courier,Courier" font-size="42.1" fill="#000000" transform="matrix(1.00, 0.00, -0.00, -1.00, 303.9, 769.7)">{</text><text xml:space="preserve" font-family="Courier,Courier" font-size="42.1" fill="#000000" transform="matrix(1.00, 0.00, -0.00, -1.00, 329.2, 769.7)">p</text><text xml:space="preserve" font-family="Courier,Courier" font-size="42.1" fill="#000000" transform="matrix(1.00, 0.00, -0.00, -1.00, 354.4, 769.7)">r</text><text xml:space="preserve" font-family="Courier,Courier" font-size="42.1" fill="#000000" transform="matrix(1.00, 0.00, -0.00, -1.00, 379.7, 769.7)">i</text><text xml:space="preserve" font-family="Courier,Courier" font-size="42.1" fill="#000000" transform="matrix(1.00, 0.00, -0.00, -1.00, 405.0, 769.7)">n</text><text xml:space="preserve" font-family="Courier,Courier" font-size="42.1" fill="#000000" transform="matrix(1.00, 0.00, -0.00, -1.00, 430.3, 769.7)">t</text><text xml:space="preserve" font-family="Courier,Courier" font-size="42.1" fill="#000000" transform="matrix(1.00, 0.00, -0.00, -1.00, 455.5, 769.7)"> </text><text xml:space="preserve" font-family="Courier,Courier" font-size="42.1" fill="#000000" transform="matrix(1.00, 0.00, -0.00, -1.00, 480.8, 769.7)">$</text><text xml:space="preserve" font-family="Courier,Courier" font-size="42.1" fill="#000000" transform="matrix(1.00, 0.00, -0.00, -1.00, 506.1, 769.7)">2</text><text xml:space="preserve" font-family="Courier,Courier" font-size="42.1" fill="#000000" transform="matrix(1.00, 0.00, -0.00, -1.00, 531.4, 769.7)">}</text><text xml:space="preserve" font-family="Courier,Courier" font-size="42.1" fill="#000000" transform="matrix(1.00, 0.00, -0.00, -1.00, 556.7, 769.7)">'</text><text xml:space="preserve" font-family="LucidaGrande,Lucida Grande" font-size="42.1" fill="#000000" transform="matrix(1.00, 0.00, -0.00, -1.00, 581.9, 769.7)"> </text><text xml:space="preserve" font-family="Helvetica-Light,Helvetica" font-size="42.1" fill="#000000" transform="matrix(1.00, 0.00, -0.00, -1.00, 177.5, 719.0)">P</text><text xml:space="preserve" font-family="Helvetica-Light,Helvetica" font-size="42.1" fill="#000000" transform="matrix(1.00, 0.00, -0.00, -1.00, 203.2, 719.0)">r</text><text xml:space="preserve" font-family="Helvetica-Light,Helvetica" font-size="42.1" fill="#000000" transform="matrix(1.00, 0.00, -0.00, -1.00, 217.3, 719.0)">i</text><text xml:space="preserve" font-family="Helvetica-Light,Helvetica" font-size="42.1" fill="#000000" transform="matrix(1.00, 0.00, -0.00, -1.00, 226.6, 719.0)">n</text><text xml:space="preserve" font-family="Helvetica-Light,Helvetica" font-size="42.1" fill="#000000" transform="matrix(1.00, 0.00, -0.00, -1.00, 250.0, 719.0)">t</text><text xml:space="preserve" font-family="Helvetica-Light,Helvetica" font-size="42.1" fill="#000000" transform="matrix(1.00, 0.00, -0.00, -1.00, 261.7, 719.0)"> </text><text xml:space="preserve" font-family="Helvetica-Light,Helvetica" font-size="42.1" fill="#000000" transform="matrix(1.00, 0.00, -0.00, -1.00, 273.4, 719.0)">t</text><text xml:space="preserve" font-family="Helvetica-Light,Helvetica" font-size="42.1" fill="#000000" transform="matrix(1.00, 0.00, -0.00, -1.00, 285.2, 719.0)">h</text><text xml:space="preserve" font-family="Helvetica-Light,Helvetica" font-size="42.1" fill="#000000" transform="matrix(1.00, 0.00, -0.00, -1.00, 308.6, 719.0)">e</text><text xml:space="preserve" font-family="Helvetica-Light,Helvetica" font-size="42.1" fill="#000000" transform="matrix(1.00, 0.00, -0.00, -1.00, 332.0, 719.0)"> </text><text xml:space="preserve" font-family="Helvetica-Light,Helvetica" font-size="42.1" fill="#000000" transform="matrix(1.00, 0.00, -0.00, -1.00, 343.7, 719.0)">s</text><text xml:space="preserve" font-family="Helvetica-Light,Helvetica" font-size="42.1" fill="#000000" transform="matrix(1.00, 0.00, -0.00, -1.00, 364.8, 719.0)">e</text><text xml:space="preserve" font-family="Helvetica-Light,Helvetica" font-size="42.1" fill="#000000" transform="matrix(1.00, 0.00, -0.00, -1.00, 388.2, 719.0)">c</text><text xml:space="preserve" font-family="Helvetica-Light,Helvetica" font-size="42.1" fill="#000000" transform="matrix(1.00, 0.00, -0.00, -1.00, 411.6, 719.0)">o</text><text xml:space="preserve" font-family="Helvetica-Light,Helvetica" font-size="42.1" fill="#000000" transform="matrix(1.00, 0.00, -0.00, -1.00, 435.0, 719.0)">n</text><text xml:space="preserve" font-family="Helvetica-Light,Helvetica" font-size="42.1" fill="#000000" transform="matrix(1.00, 0.00, -0.00, -1.00, 458.4, 719.0)">d</text><text xml:space="preserve" font-family="Helvetica-Light,Helvetica" font-size="42.1" fill="#000000" transform="matrix(1.00, 0.00, -0.00, -1.00, 484.2, 719.0)"> </text><text xml:space="preserve" font-family="Helvetica-Light,Helvetica" font-size="42.1" fill="#000000" transform="matrix(1.00, 0.00, -0.00, -1.00, 495.9, 719.0)">w</text><text xml:space="preserve" font-family="Helvetica-Light,Helvetica" font-size="42.1" fill="#000000" transform="matrix(1.00, 0.00, -0.00, -1.00, 526.3, 719.0)">o</text><text xml:space="preserve" font-family="Helvetica-Light,Helvetica" font-size="42.1" fill="#000000" transform="matrix(1.00, 0.00, -0.00, -1.00, 549.7, 719.0)">r</text><text xml:space="preserve" font-family="Helvetica-Light,Helvetica" font-size="42.1" fill="#000000" transform="matrix(1.00, 0.00, -0.00, -1.00, 563.0, 719.0)">d</text><text xml:space="preserve" font-family="Helvetica-Light,Helvetica" font-size="42.1" fill="#000000" transform="matrix(1.00, 0.00, -0.00, -1.00, 588.7, 719.0)"> </text><text xml:space="preserve" font-family="Helvetica-Light,Helvetica" font-size="31.6" fill="#000000" transform="matrix(1.00, 0.00, -0.00, -1.00, 137.0, 625.0)">•</text><text xml:space="preserve" font-family="Courier,Courier" font-size="42.1" fill="#000000" transform="matrix(1.00, 0.00, -0.00, -1.00, 177.5, 621.2)">a</text><text xml:space="preserve" font-family="Courier,Courier" font-size="42.1" fill="#000000" transform="matrix(1.00, 0.00, -0.00, -1.00, 202.8, 621.2)">w</text><text xml:space="preserve" font-family="Courier,Courier" font-size="42.1" fill="#000000" transform="matrix(1.00, 0.00, -0.00, -1.00, 228.1, 621.2)">k</text><text xml:space="preserve" font-family="Courier,Courier" font-size="42.1" fill="#000000" transform="matrix(1.00, 0.00, -0.00, -1.00, 253.3, 621.2)"> </text><text xml:space="preserve" font-family="Courier,Courier" font-size="42.1" fill="#000000" transform="matrix(1.00, 0.00, -0.00, -1.00, 278.6, 621.2)">'</text><text xml:space="preserve" font-family="Courier,Courier" font-size="42.1" fill="#000000" transform="matrix(1.00, 0.00, -0.00, -1.00, 303.9, 621.2)">/</text><text xml:space="preserve" font-family="Courier,Courier" font-size="42.1" fill="#000000" transform="matrix(1.00, 0.00, -0.00, -1.00, 329.2, 621.2)">f</text><text xml:space="preserve" font-family="Courier,Courier" font-size="42.1" fill="#000000" transform="matrix(1.00, 0.00, -0.00, -1.00, 354.4, 621.2)">o</text><text xml:space="preserve" font-family="Courier,Courier" font-size="42.1" fill="#000000" transform="matrix(1.00, 0.00, -0.00, -1.00, 379.7, 621.2)">o</text><text xml:space="preserve" font-family="Courier,Courier" font-size="42.1" fill="#000000" transform="matrix(1.00, 0.00, -0.00, -1.00, 405.0, 621.2)">/</text><text xml:space="preserve" font-family="Courier,Courier" font-size="42.1" fill="#000000" transform="matrix(1.00, 0.00, -0.00, -1.00, 430.3, 621.2)"> </text><text xml:space="preserve" font-family="Courier,Courier" font-size="42.1" fill="#000000" transform="matrix(1.00, 0.00, -0.00, -1.00, 455.5, 621.2)">{</text><text xml:space="preserve" font-family="Courier,Courier" font-size="42.1" fill="#000000" transform="matrix(1.00, 0.00, -0.00, -1.00, 480.8, 621.2)"> </text><text xml:space="preserve" font-family="Courier,Courier" font-size="42.1" fill="#000000" transform="matrix(1.00, 0.00, -0.00, -1.00, 506.1, 621.2)">p</text><text xml:space="preserve" font-family="Courier,Courier" font-size="42.1" fill="#000000" transform="matrix(1.00, 0.00, -0.00, -1.00, 531.4, 621.2)">r</text><text xml:space="preserve" font-family="Courier,Courier" font-size="42.1" fill="#000000" transform="matrix(1.00, 0.00, -0.00, -1.00, 556.7, 621.2)">i</text><text xml:space="preserve" font-family="Courier,Courier" font-size="42.1" fill="#000000" transform="matrix(1.00, 0.00, -0.00, -1.00, 581.9, 621.2)">n</text><text xml:space="preserve" font-family="Courier,Courier" font-size="42.1" fill="#000000" transform="matrix(1.00, 0.00, -0.00, -1.00, 607.2, 621.2)">t</text><text xml:space="preserve" font-family="Courier,Courier" font-size="42.1" fill="#000000" transform="matrix(1.00, 0.00, -0.00, -1.00, 632.5, 621.2)"> </text><text xml:space="preserve" font-family="Courier,Courier" font-size="42.1" fill="#000000" transform="matrix(1.00, 0.00, -0.00, -1.00, 657.8, 621.2)">$</text><text xml:space="preserve" font-family="Courier,Courier" font-size="42.1" fill="#000000" transform="matrix(1.00, 0.00, -0.00, -1.00, 683.0, 621.2)">2</text><text xml:space="preserve" font-family="Courier,Courier" font-size="42.1" fill="#000000" transform="matrix(1.00, 0.00, -0.00, -1.00, 708.3, 621.2)"> </text><text xml:space="preserve" font-family="Courier,Courier" font-size="42.1" fill="#000000" transform="matrix(1.00, 0.00, -0.00, -1.00, 733.6, 621.2)">}</text><text xml:space="preserve" font-family="Courier,Courier" font-size="42.1" fill="#000000" transform="matrix(1.00, 0.00, -0.00, -1.00, 758.9, 621.2)">'</text><text xml:space="preserve" font-family="LucidaGrande,Lucida Grande" font-size="42.1" fill="#000000" transform="matrix(1.00, 0.00, -0.00, -1.00, 784.1, 621.2)"> </text><text xml:space="preserve" font-family="Helvetica-Light,Helvetica" font-size="42.1" fill="#000000" transform="matrix(1.00, 0.00, -0.00, -1.00, 177.5, 570.5)">I</text><text xml:space="preserve" font-family="Helvetica-Light,Helvetica" font-size="42.1" fill="#000000" transform="matrix(1.00, 0.00, -0.00, -1.00, 189.2, 570.5)">t</text><text xml:space="preserve" font-family="Helvetica-Light,Helvetica" font-size="42.1" fill="#000000" transform="matrix(1.00, 0.00, -0.00, -1.00, 200.9, 570.5)">’</text><text xml:space="preserve" font-family="Helvetica-Light,Helvetica" font-size="42.1" fill="#000000" transform="matrix(1.00, 0.00, -0.00, -1.00, 207.2, 570.5)">s</text><text xml:space="preserve" font-family="Helvetica-Light,Helvetica" font-size="42.1" fill="#000000" transform="matrix(1.00, 0.00, -0.00, -1.00, 228.2, 570.5)"> </text><text xml:space="preserve" font-family="Helvetica-Light,Helvetica" font-size="42.1" fill="#000000" transform="matrix(1.00, 0.00, -0.00, -1.00, 239.9, 570.5)">l</text><text xml:space="preserve" font-family="Helvetica-Light,Helvetica" font-size="42.1" fill="#000000" transform="matrix(1.00, 0.00, -0.00, -1.00, 249.3, 570.5)">i</text><text xml:space="preserve" font-family="Helvetica-Light,Helvetica" font-size="42.1" fill="#000000" transform="matrix(1.00, 0.00, -0.00, -1.00, 258.6, 570.5)">k</text><text xml:space="preserve" font-family="Helvetica-Light,Helvetica" font-size="42.1" fill="#000000" transform="matrix(1.00, 0.00, -0.00, -1.00, 279.7, 570.5)">e</text><text xml:space="preserve" font-family="Helvetica-Light,Helvetica" font-size="42.1" fill="#000000" transform="matrix(1.00, 0.00, -0.00, -1.00, 303.1, 570.5)"> </text><text xml:space="preserve" font-family="Courier,Courier" font-size="42.1" fill="#000000" transform="matrix(1.00, 0.00, -0.00, -1.00, 314.8, 570.5)">a</text><text xml:space="preserve" font-family="Courier,Courier" font-size="42.1" fill="#000000" transform="matrix(1.00, 0.00, -0.00, -1.00, 340.1, 570.5)">w</text><text xml:space="preserve" font-family="Courier,Courier" font-size="42.1" fill="#000000" transform="matrix(1.00, 0.00, -0.00, -1.00, 365.4, 570.5)">k</text><text xml:space="preserve" font-family="Helvetica-Light,Helvetica" font-size="42.1" fill="#000000" transform="matrix(1.00, 0.00, -0.00, -1.00, 390.6, 570.5)"> </text><text xml:space="preserve" font-family="Helvetica-Light,Helvetica" font-size="42.1" fill="#000000" transform="matrix(1.00, 0.00, -0.00, -1.00, 402.3, 570.5)">h</text><text xml:space="preserve" font-family="Helvetica-Light,Helvetica" font-size="42.1" fill="#000000" transform="matrix(1.00, 0.00, -0.00, -1.00, 425.8, 570.5)">a</text><text xml:space="preserve" font-family="Helvetica-Light,Helvetica" font-size="42.1" fill="#000000" transform="matrix(1.00, 0.00, -0.00, -1.00, 449.2, 570.5)">s</text><text xml:space="preserve" font-family="Helvetica-Light,Helvetica" font-size="42.1" fill="#000000" transform="matrix(1.00, 0.00, -0.00, -1.00, 470.2, 570.5)"> </text><text xml:space="preserve" font-family="Helvetica-Light,Helvetica" font-size="42.1" fill="#000000" transform="matrix(1.00, 0.00, -0.00, -1.00, 482.0, 570.5)">g</text><text xml:space="preserve" font-family="Helvetica-Light,Helvetica" font-size="42.1" fill="#000000" transform="matrix(1.00, 0.00, -0.00, -1.00, 507.7, 570.5)">r</text><text xml:space="preserve" font-family="Helvetica-Light,Helvetica" font-size="42.1" fill="#000000" transform="matrix(1.00, 0.00, -0.00, -1.00, 521.0, 570.5)">e</text><text xml:space="preserve" font-family="Helvetica-Light,Helvetica" font-size="42.1" fill="#000000" transform="matrix(1.00, 0.00, -0.00, -1.00, 544.4, 570.5)">p</text><text xml:space="preserve" font-family="Helvetica-Light,Helvetica" font-size="42.1" fill="#000000" transform="matrix(1.00, 0.00, -0.00, -1.00, 570.1, 570.5)"> </text><text xml:space="preserve" font-family="Helvetica-Light,Helvetica" font-size="42.1" fill="#000000" transform="matrix(1.00, 0.00, -0.00, -1.00, 581.8, 570.5)">b</text><text xml:space="preserve" font-family="Helvetica-Light,Helvetica" font-size="42.1" fill="#000000" transform="matrix(1.00, 0.00, -0.00, -1.00, 607.6, 570.5)">u</text><text xml:space="preserve" font-family="Helvetica-Light,Helvetica" font-size="42.1" fill="#000000" transform="matrix(1.00, 0.00, -0.00, -1.00, 631.0, 570.5)">i</text><text xml:space="preserve" font-family="Helvetica-Light,Helvetica" font-size="42.1" fill="#000000" transform="matrix(1.00, 0.00, -0.00, -1.00, 640.3, 570.5)">l</text><text xml:space="preserve" font-family="Helvetica-Light,Helvetica" font-size="42.1" fill="#000000" transform="matrix(1.00, 0.00, -0.00, -1.00, 649.7, 570.5)">t</text><text xml:space="preserve" font-family="Helvetica-Light,Helvetica" font-size="42.1" fill="#000000" transform="matrix(1.00, 0.00, -0.00, -1.00, 661.4, 570.5)"> </text><text xml:space="preserve" font-family="Helvetica-Light,Helvetica" font-size="42.1" fill="#000000" transform="matrix(1.00, 0.00, -0.00, -1.00, 673.1, 570.5)">i</text><text xml:space="preserve" font-family="Helvetica-Light,Helvetica" font-size="42.1" fill="#000000" transform="matrix(1.00, 0.00, -0.00, -1.00, 682.4, 570.5)">n</text><text xml:space="preserve" font-family="Helvetica-Light,Helvetica" font-size="42.1" fill="#000000" transform="matrix(1.00, 0.00, -0.00, -1.00, 705.9, 570.5)">!</text><text xml:space="preserve" font-family="Helvetica-Light,Helvetica" font-size="42.1" fill="#000000" transform="matrix(1.00, 0.00, -0.00, -1.00, 719.9, 570.5)"> </text><text xml:space="preserve" font-family="Helvetica-Light,Helvetica" font-size="31.6" fill="#000000" transform="matrix(1.00, 0.00, -0.00, -1.00, 137.0, 475.8)">•</text><text xml:space="preserve" font-family="Courier,Courier" font-size="42.1" fill="#000000" transform="matrix(1.00, 0.00, -0.00, -1.00, 177.5, 472.1)">a</text><text xml:space="preserve" font-family="Courier,Courier" font-size="42.1" fill="#000000" transform="matrix(1.00, 0.00, -0.00, -1.00, 202.8, 472.1)">w</text><text xml:space="preserve" font-family="Courier,Courier" font-size="42.1" fill="#000000" transform="matrix(1.00, 0.00, -0.00, -1.00, 228.1, 472.1)">k</text><text xml:space="preserve" font-family="Courier,Courier" font-size="42.1" fill="#000000" transform="matrix(1.00, 0.00, -0.00, -1.00, 253.3, 472.1)"> </text><text xml:space="preserve" font-family="Courier,Courier" font-size="42.1" fill="#000000" transform="matrix(1.00, 0.00, -0.00, -1.00, 278.6, 472.1)">'</text><text xml:space="preserve" font-family="Courier,Courier" font-size="42.1" fill="#000000" transform="matrix(1.00, 0.00, -0.00, -1.00, 303.9, 472.1)">{</text><text xml:space="preserve" font-family="Courier,Courier" font-size="42.1" fill="#000000" transform="matrix(1.00, 0.00, -0.00, -1.00, 329.2, 472.1)">i</text><text xml:space="preserve" font-family="Courier,Courier" font-size="42.1" fill="#000000" transform="matrix(1.00, 0.00, -0.00, -1.00, 354.4, 472.1)">f</text><text xml:space="preserve" font-family="Courier,Courier" font-size="42.1" fill="#000000" transform="matrix(1.00, 0.00, -0.00, -1.00, 379.7, 472.1)"> </text><text xml:space="preserve" font-family="Courier,Courier" font-size="42.1" fill="#000000" transform="matrix(1.00, 0.00, -0.00, -1.00, 405.0, 472.1)">(</text><text xml:space="preserve" font-family="Courier,Courier" font-size="42.1" fill="#000000" transform="matrix(1.00, 0.00, -0.00, -1.00, 430.3, 472.1)">N</text><text xml:space="preserve" font-family="Courier,Courier" font-size="42.1" fill="#000000" transform="matrix(1.00, 0.00, -0.00, -1.00, 455.5, 472.1)">R</text><text xml:space="preserve" font-family="Courier,Courier" font-size="42.1" fill="#000000" transform="matrix(1.00, 0.00, -0.00, -1.00, 480.8, 472.1)">!</text><text xml:space="preserve" font-family="Courier,Courier" font-size="42.1" fill="#000000" transform="matrix(1.00, 0.00, -0.00, -1.00, 506.1, 472.1)">=</text><text xml:space="preserve" font-family="Courier,Courier" font-size="42.1" fill="#000000" transform="matrix(1.00, 0.00, -0.00, -1.00, 531.4, 472.1)">1</text><text xml:space="preserve" font-family="Courier,Courier" font-size="42.1" fill="#000000" transform="matrix(1.00, 0.00, -0.00, -1.00, 556.7, 472.1)">)</text><text xml:space="preserve" font-family="Courier,Courier" font-size="42.1" fill="#000000" transform="matrix(1.00, 0.00, -0.00, -1.00, 581.9, 472.1)"> </text><text xml:space="preserve" font-family="Courier,Courier" font-size="42.1" fill="#000000" transform="matrix(1.00, 0.00, -0.00, -1.00, 607.2, 472.1)">{</text><text xml:space="preserve" font-family="Courier,Courier" font-size="42.1" fill="#000000" transform="matrix(1.00, 0.00, -0.00, -1.00, 632.5, 472.1)">p</text><text xml:space="preserve" font-family="Courier,Courier" font-size="42.1" fill="#000000" transform="matrix(1.00, 0.00, -0.00, -1.00, 657.8, 472.1)">r</text><text xml:space="preserve" font-family="Courier,Courier" font-size="42.1" fill="#000000" transform="matrix(1.00, 0.00, -0.00, -1.00, 683.0, 472.1)">i</text><text xml:space="preserve" font-family="Courier,Courier" font-size="42.1" fill="#000000" transform="matrix(1.00, 0.00, -0.00, -1.00, 708.3, 472.1)">n</text><text xml:space="preserve" font-family="Courier,Courier" font-size="42.1" fill="#000000" transform="matrix(1.00, 0.00, -0.00, -1.00, 733.6, 472.1)">t</text><text xml:space="preserve" font-family="Courier,Courier" font-size="42.1" fill="#000000" transform="matrix(1.00, 0.00, -0.00, -1.00, 758.9, 472.1)">}</text><text xml:space="preserve" font-family="Courier,Courier" font-size="42.1" fill="#000000" transform="matrix(1.00, 0.00, -0.00, -1.00, 784.1, 472.1)">}</text><text xml:space="preserve" font-family="Courier,Courier" font-size="42.1" fill="#000000" transform="matrix(1.00, 0.00, -0.00, -1.00, 809.4, 472.1)">'</text><text xml:space="preserve" font-family="LucidaGrande,Lucida Grande" font-size="42.1" fill="#000000" transform="matrix(1.00, 0.00, -0.00, -1.00, 834.7, 472.1)"> </text><text xml:space="preserve" font-family="Helvetica-Light,Helvetica" font-size="42.1" fill="#000000" transform="matrix(1.00, 0.00, -0.00, -1.00, 177.5, 421.4)">P</text><text xml:space="preserve" font-family="Helvetica-Light,Helvetica" font-size="42.1" fill="#000000" transform="matrix(1.00, 0.00, -0.00, -1.00, 203.2, 421.4)">r</text><text xml:space="preserve" font-family="Helvetica-Light,Helvetica" font-size="42.1" fill="#000000" transform="matrix(1.00, 0.00, -0.00, -1.00, 217.3, 421.4)">i</text><text xml:space="preserve" font-family="Helvetica-Light,Helvetica" font-size="42.1" fill="#000000" transform="matrix(1.00, 0.00, -0.00, -1.00, 226.6, 421.4)">n</text><text xml:space="preserve" font-family="Helvetica-Light,Helvetica" font-size="42.1" fill="#000000" transform="matrix(1.00, 0.00, -0.00, -1.00, 250.0, 421.4)">t</text><text xml:space="preserve" font-family="Helvetica-Light,Helvetica" font-size="42.1" fill="#000000" transform="matrix(1.00, 0.00, -0.00, -1.00, 261.7, 421.4)"> </text><text xml:space="preserve" font-family="Helvetica-Light,Helvetica" font-size="42.1" fill="#000000" transform="matrix(1.00, 0.00, -0.00, -1.00, 273.4, 421.4)">a</text><text xml:space="preserve" font-family="Helvetica-Light,Helvetica" font-size="42.1" fill="#000000" transform="matrix(1.00, 0.00, -0.00, -1.00, 296.9, 421.4)">l</text><text xml:space="preserve" font-family="Helvetica-Light,Helvetica" font-size="42.1" fill="#000000" transform="matrix(1.00, 0.00, -0.00, -1.00, 306.2, 421.4)">l</text><text xml:space="preserve" font-family="Helvetica-Light,Helvetica" font-size="42.1" fill="#000000" transform="matrix(1.00, 0.00, -0.00, -1.00, 315.6, 421.4)"> </text><text xml:space="preserve" font-family="Helvetica-Light,Helvetica" font-size="42.1" fill="#000000" transform="matrix(1.00, 0.00, -0.00, -1.00, 327.3, 421.4)">l</text><text xml:space="preserve" font-family="Helvetica-Light,Helvetica" font-size="42.1" fill="#000000" transform="matrix(1.00, 0.00, -0.00, -1.00, 336.6, 421.4)">i</text><text xml:space="preserve" font-family="Helvetica-Light,Helvetica" font-size="42.1" fill="#000000" transform="matrix(1.00, 0.00, -0.00, -1.00, 346.0, 421.4)">n</text><text xml:space="preserve" font-family="Helvetica-Light,Helvetica" font-size="42.1" fill="#000000" transform="matrix(1.00, 0.00, -0.00, -1.00, 369.4, 421.4)">e</text><text xml:space="preserve" font-family="Helvetica-Light,Helvetica" font-size="42.1" fill="#000000" transform="matrix(1.00, 0.00, -0.00, -1.00, 392.8, 421.4)">s</text><text xml:space="preserve" font-family="Helvetica-Light,Helvetica" font-size="42.1" fill="#000000" transform="matrix(1.00, 0.00, -0.00, -1.00, 413.9, 421.4)"> </text><text xml:space="preserve" font-family="Helvetica-Light,Helvetica" font-size="42.1" fill="#000000" transform="matrix(1.00, 0.00, -0.00, -1.00, 425.6, 421.4)">e</text><text xml:space="preserve" font-family="Helvetica-Light,Helvetica" font-size="42.1" fill="#000000" transform="matrix(1.00, 0.00, -0.00, -1.00, 449.0, 421.4)">x</text><text xml:space="preserve" font-family="Helvetica-Light,Helvetica" font-size="42.1" fill="#000000" transform="matrix(1.00, 0.00, -0.00, -1.00, 470.1, 421.4)">c</text><text xml:space="preserve" font-family="Helvetica-Light,Helvetica" font-size="42.1" fill="#000000" transform="matrix(1.00, 0.00, -0.00, -1.00, 493.5, 421.4)">e</text><text xml:space="preserve" font-family="Helvetica-Light,Helvetica" font-size="42.1" fill="#000000" transform="matrix(1.00, 0.00, -0.00, -1.00, 516.9, 421.4)">p</text><text xml:space="preserve" font-family="Helvetica-Light,Helvetica" font-size="42.1" fill="#000000" transform="matrix(1.00, 0.00, -0.00, -1.00, 542.6, 421.4)">t</text><text xml:space="preserve" font-family="Helvetica-Light,Helvetica" font-size="42.1" fill="#000000" transform="matrix(1.00, 0.00, -0.00, -1.00, 554.3, 421.4)"> </text><text xml:space="preserve" font-family="Helvetica-Light,Helvetica" font-size="42.1" fill="#000000" transform="matrix(1.00, 0.00, -0.00, -1.00, 566.1, 421.4)">t</text><text xml:space="preserve" font-family="Helvetica-Light,Helvetica" font-size="42.1" fill="#000000" transform="matrix(1.00, 0.00, -0.00, -1.00, 577.8, 421.4)">h</text><text xml:space="preserve" font-family="Helvetica-Light,Helvetica" font-size="42.1" fill="#000000" transform="matrix(1.00, 0.00, -0.00, -1.00, 601.2, 421.4)">e</text><text xml:space="preserve" font-family="Helvetica-Light,Helvetica" font-size="42.1" fill="#000000" transform="matrix(1.00, 0.00, -0.00, -1.00, 624.6, 421.4)"> </text><text xml:space="preserve" font-family="Helvetica-Light,Helvetica" font-size="42.1" fill="#000000" transform="matrix(1.00, 0.00, -0.00, -1.00, 636.3, 421.4)">ﬁ</text><text xml:space="preserve" font-family="Helvetica-Light,Helvetica" font-size="42.1" fill="#000000" transform="matrix(1.00, 0.00, -0.00, -1.00, 657.4, 421.4)">r</text><text xml:space="preserve" font-family="Helvetica-Light,Helvetica" font-size="42.1" fill="#000000" transform="matrix(1.00, 0.00, -0.00, -1.00, 671.4, 421.4)">s</text><text xml:space="preserve" font-family="Helvetica-Light,Helvetica" font-size="42.1" fill="#000000" transform="matrix(1.00, 0.00, -0.00, -1.00, 692.5, 421.4)">t</text><text xml:space="preserve" font-family="Helvetica-Light,Helvetica" font-size="42.1" fill="#000000" transform="matrix(1.00, 0.00, -0.00, -1.00, 704.2, 421.4)"> </text><text xml:space="preserve" font-family="Helvetica-Light,Helvetica" font-size="31.6" fill="#000000" transform="matrix(1.00, 0.00, -0.00, -1.00, 137.0, 327.3)">•</text><text xml:space="preserve" font-family="Courier,Courier" font-size="42.1" fill="#000000" transform="matrix(1.00, 0.00, -0.00, -1.00, 177.5, 323.6)">a</text><text xml:space="preserve" font-family="Courier,Courier" font-size="42.1" fill="#000000" transform="matrix(1.00, 0.00, -0.00, -1.00, 202.8, 323.6)">w</text><text xml:space="preserve" font-family="Courier,Courier" font-size="42.1" fill="#000000" transform="matrix(1.00, 0.00, -0.00, -1.00, 228.1, 323.6)">k</text><text xml:space="preserve" font-family="Courier,Courier" font-size="42.1" fill="#000000" transform="matrix(1.00, 0.00, -0.00, -1.00, 253.3, 323.6)"> </text><text xml:space="preserve" font-family="Courier,Courier" font-size="42.1" fill="#000000" transform="matrix(1.00, 0.00, -0.00, -1.00, 278.6, 323.6)">'</text><text xml:space="preserve" font-family="Courier,Courier" font-size="42.1" fill="#000000" transform="matrix(1.00, 0.00, -0.00, -1.00, 303.9, 323.6)">{</text><text xml:space="preserve" font-family="Courier,Courier" font-size="42.1" fill="#000000" transform="matrix(1.00, 0.00, -0.00, -1.00, 329.2, 323.6)"> </text><text xml:space="preserve" font-family="Courier,Courier" font-size="42.1" fill="#000000" transform="matrix(1.00, 0.00, -0.00, -1.00, 354.4, 323.6)">N</text><text xml:space="preserve" font-family="Courier,Courier" font-size="42.1" fill="#000000" transform="matrix(1.00, 0.00, -0.00, -1.00, 379.7, 323.6)">R</text><text xml:space="preserve" font-family="Courier,Courier" font-size="42.1" fill="#000000" transform="matrix(1.00, 0.00, -0.00, -1.00, 405.0, 323.6)">=</text><text xml:space="preserve" font-family="Courier,Courier" font-size="42.1" fill="#000000" transform="matrix(1.00, 0.00, -0.00, -1.00, 430.3, 323.6)">=</text><text xml:space="preserve" font-family="Courier,Courier" font-size="42.1" fill="#000000" transform="matrix(1.00, 0.00, -0.00, -1.00, 455.5, 323.6)">2</text><text xml:space="preserve" font-family="Courier,Courier" font-size="42.1" fill="#000000" transform="matrix(1.00, 0.00, -0.00, -1.00, 480.8, 323.6)"> </text><text xml:space="preserve" font-family="Courier,Courier" font-size="42.1" fill="#000000" transform="matrix(1.00, 0.00, -0.00, -1.00, 506.1, 323.6)">}</text><text xml:space="preserve" font-family="Courier,Courier" font-size="42.1" fill="#000000" transform="matrix(1.00, 0.00, -0.00, -1.00, 531.4, 323.6)">'</text><text xml:space="preserve" font-family="LucidaGrande,Lucida Grande" font-size="42.1" fill="#000000" transform="matrix(1.00, 0.00, -0.00, -1.00, 556.6, 323.6)"> </text><text xml:space="preserve" font-family="Helvetica-Light,Helvetica" font-size="42.1" fill="#000000" transform="matrix(1.00, 0.00, -0.00, -1.00, 177.5, 272.9)">P</text><text xml:space="preserve" font-family="Helvetica-Light,Helvetica" font-size="42.1" fill="#000000" transform="matrix(1.00, 0.00, -0.00, -1.00, 203.2, 272.9)">r</text><text xml:space="preserve" font-family="Helvetica-Light,Helvetica" font-size="42.1" fill="#000000" transform="matrix(1.00, 0.00, -0.00, -1.00, 217.3, 272.9)">i</text><text xml:space="preserve" font-family="Helvetica-Light,Helvetica" font-size="42.1" fill="#000000" transform="matrix(1.00, 0.00, -0.00, -1.00, 226.6, 272.9)">n</text><text xml:space="preserve" font-family="Helvetica-Light,Helvetica" font-size="42.1" fill="#000000" transform="matrix(1.00, 0.00, -0.00, -1.00, 250.0, 272.9)">t</text><text xml:space="preserve" font-family="Helvetica-Light,Helvetica" font-size="42.1" fill="#000000" transform="matrix(1.00, 0.00, -0.00, -1.00, 261.7, 272.9)"> </text><text xml:space="preserve" font-family="Helvetica-Light,Helvetica" font-size="42.1" fill="#000000" transform="matrix(1.00, 0.00, -0.00, -1.00, 273.4, 272.9)">t</text><text xml:space="preserve" font-family="Helvetica-Light,Helvetica" font-size="42.1" fill="#000000" transform="matrix(1.00, 0.00, -0.00, -1.00, 285.2, 272.9)">h</text><text xml:space="preserve" font-family="Helvetica-Light,Helvetica" font-size="42.1" fill="#000000" transform="matrix(1.00, 0.00, -0.00, -1.00, 308.6, 272.9)">e</text><text xml:space="preserve" font-family="Helvetica-Light,Helvetica" font-size="42.1" fill="#000000" transform="matrix(1.00, 0.00, -0.00, -1.00, 332.0, 272.9)"> </text><text xml:space="preserve" font-family="Helvetica-Light,Helvetica" font-size="42.1" fill="#000000" transform="matrix(1.00, 0.00, -0.00, -1.00, 343.7, 272.9)">s</text><text xml:space="preserve" font-family="Helvetica-Light,Helvetica" font-size="42.1" fill="#000000" transform="matrix(1.00, 0.00, -0.00, -1.00, 364.8, 272.9)">e</text><text xml:space="preserve" font-family="Helvetica-Light,Helvetica" font-size="42.1" fill="#000000" transform="matrix(1.00, 0.00, -0.00, -1.00, 388.2, 272.9)">c</text><text xml:space="preserve" font-family="Helvetica-Light,Helvetica" font-size="42.1" fill="#000000" transform="matrix(1.00, 0.00, -0.00, -1.00, 411.6, 272.9)">o</text><text xml:space="preserve" font-family="Helvetica-Light,Helvetica" font-size="42.1" fill="#000000" transform="matrix(1.00, 0.00, -0.00, -1.00, 435.0, 272.9)">n</text><text xml:space="preserve" font-family="Helvetica-Light,Helvetica" font-size="42.1" fill="#000000" transform="matrix(1.00, 0.00, -0.00, -1.00, 458.4, 272.9)">d</text><text xml:space="preserve" font-family="Helvetica-Light,Helvetica" font-size="42.1" fill="#000000" transform="matrix(1.00, 0.00, -0.00, -1.00, 484.2, 272.9)"> </text><text xml:space="preserve" font-family="Helvetica-Light,Helvetica" font-size="42.1" fill="#000000" transform="matrix(1.00, 0.00, -0.00, -1.00, 495.9, 272.9)">l</text><text xml:space="preserve" font-family="Helvetica-Light,Helvetica" font-size="42.1" fill="#000000" transform="matrix(1.00, 0.00, -0.00, -1.00, 505.2, 272.9)">i</text><text xml:space="preserve" font-family="Helvetica-Light,Helvetica" font-size="42.1" fill="#000000" transform="matrix(1.00, 0.00, -0.00, -1.00, 514.6, 272.9)">n</text><text xml:space="preserve" font-family="Helvetica-Light,Helvetica" font-size="42.1" fill="#000000" transform="matrix(1.00, 0.00, -0.00, -1.00, 538.0, 272.9)">e</text><text xml:space="preserve" font-family="Helvetica-Light,Helvetica" font-size="42.1" fill="#000000" transform="matrix(1.00, 0.00, -0.00, -1.00, 561.4, 272.9)"> </text><text xml:space="preserve" font-family="Helvetica-Light,Helvetica" font-size="31.6" fill="#000000" transform="matrix(1.00, 0.00, -0.00, -1.00, 137.0, 178.9)">•</text><text xml:space="preserve" font-family="Courier,Courier" font-size="42.1" fill="#000000" transform="matrix(1.00, 0.00, -0.00, -1.00, 177.5, 175.1)">a</text><text xml:space="preserve" font-family="Courier,Courier" font-size="42.1" fill="#000000" transform="matrix(1.00, 0.00, -0.00, -1.00, 202.8, 175.1)">w</text><text xml:space="preserve" font-family="Courier,Courier" font-size="42.1" fill="#000000" transform="matrix(1.00, 0.00, -0.00, -1.00, 228.1, 175.1)">k</text><text xml:space="preserve" font-family="Courier,Courier" font-size="42.1" fill="#000000" transform="matrix(1.00, 0.00, -0.00, -1.00, 253.3, 175.1)"> </text><text xml:space="preserve" font-family="Courier,Courier" font-size="42.1" fill="#000000" transform="matrix(1.00, 0.00, -0.00, -1.00, 278.6, 175.1)">'</text><text xml:space="preserve" font-family="Courier,Courier" font-size="42.1" fill="#000000" transform="matrix(1.00, 0.00, -0.00, -1.00, 303.9, 175.1)">{</text><text xml:space="preserve" font-family="Courier,Courier" font-size="42.1" fill="#000000" transform="matrix(1.00, 0.00, -0.00, -1.00, 329.2, 175.1)"> </text><text xml:space="preserve" font-family="Courier,Courier" font-size="42.1" fill="#000000" transform="matrix(1.00, 0.00, -0.00, -1.00, 354.4, 175.1)">N</text><text xml:space="preserve" font-family="Courier,Courier" font-size="42.1" fill="#000000" transform="matrix(1.00, 0.00, -0.00, -1.00, 379.7, 175.1)">R</text><text xml:space="preserve" font-family="Courier,Courier" font-size="42.1" fill="#000000" transform="matrix(1.00, 0.00, -0.00, -1.00, 405.0, 175.1)">=</text><text xml:space="preserve" font-family="Courier,Courier" font-size="42.1" fill="#000000" transform="matrix(1.00, 0.00, -0.00, -1.00, 430.3, 175.1)">=</text><text xml:space="preserve" font-family="Courier,Courier" font-size="42.1" fill="#000000" transform="matrix(1.00, 0.00, -0.00, -1.00, 455.5, 175.1)">2</text><text xml:space="preserve" font-family="Courier,Courier" font-size="42.1" fill="#000000" transform="matrix(1.00, 0.00, -0.00, -1.00, 480.8, 175.1)"> </text><text xml:space="preserve" font-family="Courier,Courier" font-size="42.1" fill="#000000" transform="matrix(1.00, 0.00, -0.00, -1.00, 506.1, 175.1)">{</text><text xml:space="preserve" font-family="Courier,Courier" font-size="42.1" fill="#000000" transform="matrix(1.00, 0.00, -0.00, -1.00, 531.4, 175.1)"> </text><text xml:space="preserve" font-family="Courier,Courier" font-size="42.1" fill="#000000" transform="matrix(1.00, 0.00, -0.00, -1.00, 556.7, 175.1)">p</text><text xml:space="preserve" font-family="Courier,Courier" font-size="42.1" fill="#000000" transform="matrix(1.00, 0.00, -0.00, -1.00, 581.9, 175.1)">r</text><text xml:space="preserve" font-family="Courier,Courier" font-size="42.1" fill="#000000" transform="matrix(1.00, 0.00, -0.00, -1.00, 607.2, 175.1)">i</text><text xml:space="preserve" font-family="Courier,Courier" font-size="42.1" fill="#000000" transform="matrix(1.00, 0.00, -0.00, -1.00, 632.5, 175.1)">n</text><text xml:space="preserve" font-family="Courier,Courier" font-size="42.1" fill="#000000" transform="matrix(1.00, 0.00, -0.00, -1.00, 657.8, 175.1)">t</text><text xml:space="preserve" font-family="Courier,Courier" font-size="42.1" fill="#000000" transform="matrix(1.00, 0.00, -0.00, -1.00, 683.0, 175.1)"> </text><text xml:space="preserve" font-family="Courier,Courier" font-size="42.1" fill="#000000" transform="matrix(1.00, 0.00, -0.00, -1.00, 708.3, 175.1)">$</text><text xml:space="preserve" font-family="Courier,Courier" font-size="42.1" fill="#000000" transform="matrix(1.00, 0.00, -0.00, -1.00, 733.6, 175.1)">3</text><text xml:space="preserve" font-family="Courier,Courier" font-size="42.1" fill="#000000" transform="matrix(1.00, 0.00, -0.00, -1.00, 758.9, 175.1)"> </text><text xml:space="preserve" font-family="Courier,Courier" font-size="42.1" fill="#000000" transform="matrix(1.00, 0.00, -0.00, -1.00, 784.2, 175.1)">}</text><text xml:space="preserve" font-family="Courier,Courier" font-size="42.1" fill="#000000" transform="matrix(1.00, 0.00, -0.00, -1.00, 809.4, 175.1)">}</text><text xml:space="preserve" font-family="Courier,Courier" font-size="42.1" fill="#000000" transform="matrix(1.00, 0.00, -0.00, -1.00, 834.7, 175.1)">'</text><text xml:space="preserve" font-family="LucidaGrande,Lucida Grande" font-size="42.1" fill="#000000" transform="matrix(1.00, 0.00, -0.00, -1.00, 860.0, 175.1)"> </text><text xml:space="preserve" font-family="Helvetica-Light,Helvetica" font-size="42.1" fill="#000000" transform="matrix(1.00, 0.00, -0.00, -1.00, 177.5, 124.5)">P</text><text xml:space="preserve" font-family="Helvetica-Light,Helvetica" font-size="42.1" fill="#000000" transform="matrix(1.00, 0.00, -0.00, -1.00, 203.2, 124.5)">r</text><text xml:space="preserve" font-family="Helvetica-Light,Helvetica" font-size="42.1" fill="#000000" transform="matrix(1.00, 0.00, -0.00, -1.00, 217.3, 124.5)">i</text><text xml:space="preserve" font-family="Helvetica-Light,Helvetica" font-size="42.1" fill="#000000" transform="matrix(1.00, 0.00, -0.00, -1.00, 226.6, 124.5)">n</text><text xml:space="preserve" font-family="Helvetica-Light,Helvetica" font-size="42.1" fill="#000000" transform="matrix(1.00, 0.00, -0.00, -1.00, 250.0, 124.5)">t</text><text xml:space="preserve" font-family="Helvetica-Light,Helvetica" font-size="42.1" fill="#000000" transform="matrix(1.00, 0.00, -0.00, -1.00, 261.7, 124.5)"> </text><text xml:space="preserve" font-family="Helvetica-Light,Helvetica" font-size="42.1" fill="#000000" transform="matrix(1.00, 0.00, -0.00, -1.00, 273.4, 124.5)">t</text><text xml:space="preserve" font-family="Helvetica-Light,Helvetica" font-size="42.1" fill="#000000" transform="matrix(1.00, 0.00, -0.00, -1.00, 285.2, 124.5)">h</text><text xml:space="preserve" font-family="Helvetica-Light,Helvetica" font-size="42.1" fill="#000000" transform="matrix(1.00, 0.00, -0.00, -1.00, 308.6, 124.5)">e</text><text xml:space="preserve" font-family="Helvetica-Light,Helvetica" font-size="42.1" fill="#000000" transform="matrix(1.00, 0.00, -0.00, -1.00, 332.0, 124.5)"> </text><text xml:space="preserve" font-family="Helvetica-Light,Helvetica" font-size="42.1" fill="#000000" transform="matrix(1.00, 0.00, -0.00, -1.00, 343.7, 124.5)">t</text><text xml:space="preserve" font-family="Helvetica-Light,Helvetica" font-size="42.1" fill="#000000" transform="matrix(1.00, 0.00, -0.00, -1.00, 355.4, 124.5)">h</text><text xml:space="preserve" font-family="Helvetica-Light,Helvetica" font-size="42.1" fill="#000000" transform="matrix(1.00, 0.00, -0.00, -1.00, 378.8, 124.5)">i</text><text xml:space="preserve" font-family="Helvetica-Light,Helvetica" font-size="42.1" fill="#000000" transform="matrix(1.00, 0.00, -0.00, -1.00, 388.2, 124.5)">r</text><text xml:space="preserve" font-family="Helvetica-Light,Helvetica" font-size="42.1" fill="#000000" transform="matrix(1.00, 0.00, -0.00, -1.00, 401.5, 124.5)">d</text><text xml:space="preserve" font-family="Helvetica-Light,Helvetica" font-size="42.1" fill="#000000" transform="matrix(1.00, 0.00, -0.00, -1.00, 427.2, 124.5)"> </text><text xml:space="preserve" font-family="Helvetica-Light,Helvetica" font-size="42.1" fill="#000000" transform="matrix(1.00, 0.00, -0.00, -1.00, 438.9, 124.5)">o</text><text xml:space="preserve" font-family="Helvetica-Light,Helvetica" font-size="42.1" fill="#000000" transform="matrix(1.00, 0.00, -0.00, -1.00, 462.3, 124.5)">c</text><text xml:space="preserve" font-family="Helvetica-Light,Helvetica" font-size="42.1" fill="#000000" transform="matrix(1.00, 0.00, -0.00, -1.00, 485.7, 124.5)">c</text><text xml:space="preserve" font-family="Helvetica-Light,Helvetica" font-size="42.1" fill="#000000" transform="matrix(1.00, 0.00, -0.00, -1.00, 509.2, 124.5)">u</text><text xml:space="preserve" font-family="Helvetica-Light,Helvetica" font-size="42.1" fill="#000000" transform="matrix(1.00, 0.00, -0.00, -1.00, 532.6, 124.5)">r</text><text xml:space="preserve" font-family="Helvetica-Light,Helvetica" font-size="42.1" fill="#000000" transform="matrix(1.00, 0.00, -0.00, -1.00, 546.6, 124.5)">r</text><text xml:space="preserve" font-family="Helvetica-Light,Helvetica" font-size="42.1" fill="#000000" transform="matrix(1.00, 0.00, -0.00, -1.00, 559.9, 124.5)">e</text><text xml:space="preserve" font-family="Helvetica-Light,Helvetica" font-size="42.1" fill="#000000" transform="matrix(1.00, 0.00, -0.00, -1.00, 583.3, 124.5)">n</text><text xml:space="preserve" font-family="Helvetica-Light,Helvetica" font-size="42.1" fill="#000000" transform="matrix(1.00, 0.00, -0.00, -1.00, 606.7, 124.5)">c</text><text xml:space="preserve" font-family="Helvetica-Light,Helvetica" font-size="42.1" fill="#000000" transform="matrix(1.00, 0.00, -0.00, -1.00, 630.1, 124.5)">e</text><text xml:space="preserve" font-family="Helvetica-Light,Helvetica" font-size="42.1" fill="#000000" transform="matrix(1.00, 0.00, -0.00, -1.00, 653.5, 124.5)"> </text><text xml:space="preserve" font-family="Helvetica-Light,Helvetica" font-size="42.1" fill="#000000" transform="matrix(1.00, 0.00, -0.00, -1.00, 665.2, 124.5)">o</text><text xml:space="preserve" font-family="Helvetica-Light,Helvetica" font-size="42.1" fill="#000000" transform="matrix(1.00, 0.00, -0.00, -1.00, 688.7, 124.5)">n</text><text xml:space="preserve" font-family="Helvetica-Light,Helvetica" font-size="42.1" fill="#000000" transform="matrix(1.00, 0.00, -0.00, -1.00, 712.1, 124.5)"> </text><text xml:space="preserve" font-family="Helvetica-Light,Helvetica" font-size="42.1" fill="#000000" transform="matrix(1.00, 0.00, -0.00, -1.00, 723.8, 124.5)">t</text><text xml:space="preserve" font-family="Helvetica-Light,Helvetica" font-size="42.1" fill="#000000" transform="matrix(1.00, 0.00, -0.00, -1.00, 735.5, 124.5)">h</text><text xml:space="preserve" font-family="Helvetica-Light,Helvetica" font-size="42.1" fill="#000000" transform="matrix(1.00, 0.00, -0.00, -1.00, 758.9, 124.5)">e</text><text xml:space="preserve" font-family="Helvetica-Light,Helvetica" font-size="42.1" fill="#000000" transform="matrix(1.00, 0.00, -0.00, -1.00, 782.3, 124.5)"> </text><text xml:space="preserve" font-family="Helvetica-Light,Helvetica" font-size="42.1" fill="#000000" transform="matrix(1.00, 0.00, -0.00, -1.00, 794.1, 124.5)">s</text><text xml:space="preserve" font-family="Helvetica-Light,Helvetica" font-size="42.1" fill="#000000" transform="matrix(1.00, 0.00, -0.00, -1.00, 815.1, 124.5)">e</text><text xml:space="preserve" font-family="Helvetica-Light,Helvetica" font-size="42.1" fill="#000000" transform="matrix(1.00, 0.00, -0.00, -1.00, 838.5, 124.5)">c</text><text xml:space="preserve" font-family="Helvetica-Light,Helvetica" font-size="42.1" fill="#000000" transform="matrix(1.00, 0.00, -0.00, -1.00, 861.9, 124.5)">o</text><text xml:space="preserve" font-family="Helvetica-Light,Helvetica" font-size="42.1" fill="#000000" transform="matrix(1.00, 0.00, -0.00, -1.00, 885.4, 124.5)">n</text><text xml:space="preserve" font-family="Helvetica-Light,Helvetica" font-size="42.1" fill="#000000" transform="matrix(1.00, 0.00, -0.00, -1.00, 908.8, 124.5)">d</text><text xml:space="preserve" font-family="Helvetica-Light,Helvetica" font-size="42.1" fill="#000000" transform="matrix(1.00, 0.00, -0.00, -1.00, 934.5, 124.5)"> </text><text xml:space="preserve" font-family="Helvetica-Light,Helvetica" font-size="42.1" fill="#000000" transform="matrix(1.00, 0.00, -0.00, -1.00, 946.2, 124.5)">l</text><text xml:space="preserve" font-family="Helvetica-Light,Helvetica" font-size="42.1" fill="#000000" transform="matrix(1.00, 0.00, -0.00, -1.00, 955.6, 124.5)">i</text><text xml:space="preserve" font-family="Helvetica-Light,Helvetica" font-size="42.1" fill="#000000" transform="matrix(1.00, 0.00, -0.00, -1.00, 964.9, 124.5)">n</text><text xml:space="preserve" font-family="Helvetica-Light,Helvetica" font-size="42.1" fill="#000000" transform="matrix(1.00, 0.00, -0.00, -1.00, 988.4, 124.5)">e</text></g></svg>