<?xml version="1.0" encoding="UTF-8" standalone="no"?><svg xmlns="http://www.w3.org/2000/svg" xmlns:xlink="http://www.w3.org/1999/xlink" clip-rule="evenodd" stroke-miterlimit="10" viewBox="0 0 1920 1080"><desc>SVG generated by Keynote</desc><defs></defs><g transform="matrix(1.00, 0.00, -0.00, -1.00, 0.0, 1080.0)"><path d="M 0.0 1080.0 L 1920.0 1080.0 L 1920.0 0.0 L 0.0 0.0 Z M 0.0 1080.0 " fill="#FEFFFF"></path><text xml:space="preserve" font-family="Helvetica-Light,Helvetica" font-size="112.0" fill="#000000" transform="matrix(1.00, 0.00, -0.00, -1.00, 569.2, 874.8)">P</text><text xml:space="preserve" font-family="Helvetica-Light,Helvetica" font-size="112.0" fill="#000000" transform="matrix(1.00, 0.00, -0.00, -1.00, 637.6, 874.8)">i</text><text xml:space="preserve" font-family="Helvetica-Light,Helvetica" font-size="112.0" fill="#000000" transform="matrix(1.00, 0.00, -0.00, -1.00, 662.5, 874.8)">c</text><text xml:space="preserve" font-family="Helvetica-Light,Helvetica" font-size="112.0" fill="#000000" transform="matrix(1.00, 0.00, -0.00, -1.00, 724.7, 874.8)">k</text><text xml:space="preserve" font-family="Helvetica-Light,Helvetica" font-size="112.0" fill="#000000" transform="matrix(1.00, 0.00, -0.00, -1.00, 780.7, 874.8)"> </text><text xml:space="preserve" font-family="Helvetica-Light,Helvetica" font-size="112.0" fill="#000000" transform="matrix(1.00, 0.00, -0.00, -1.00, 811.9, 874.8)">y</text><text xml:space="preserve" font-family="Helvetica-Light,Helvetica" font-size="112.0" fill="#000000" transform="matrix(1.00, 0.00, -0.00, -1.00, 867.9, 874.8)">o</text><text xml:space="preserve" font-family="Helvetica-Light,Helvetica" font-size="112.0" fill="#000000" transform="matrix(1.00, 0.00, -0.00, -1.00, 930.1, 874.8)">u</text><text xml:space="preserve" font-family="Helvetica-Light,Helvetica" font-size="112.0" fill="#000000" transform="matrix(1.00, 0.00, -0.00, -1.00, 992.4, 874.8)">r</text><text xml:space="preserve" font-family="Helvetica-Light,Helvetica" font-size="112.0" fill="#000000" transform="matrix(1.00, 0.00, -0.00, -1.00, 1029.7, 874.8)"> </text><text xml:space="preserve" font-family="Courier,Courier" font-size="112.0" fill="#000000" transform="matrix(1.00, 0.00, -0.00, -1.00, 1060.8, 874.8)">e</text><text xml:space="preserve" font-family="Courier,Courier" font-size="112.0" fill="#000000" transform="matrix(1.00, 0.00, -0.00, -1.00, 1128.1, 874.8)">d</text><text xml:space="preserve" font-family="Helvetica-Light,Helvetica" font-size="112.0" fill="#000000" transform="matrix(1.00, 0.00, -0.00, -1.00, 1195.3, 874.8)">i</text><text xml:space="preserve" font-family="Helvetica-Light,Helvetica" font-size="112.0" fill="#000000" transform="matrix(1.00, 0.00, -0.00, -1.00, 1220.1, 874.8)">t</text><text xml:space="preserve" font-family="Helvetica-Light,Helvetica" font-size="112.0" fill="#000000" transform="matrix(1.00, 0.00, -0.00, -1.00, 1251.3, 874.8)">o</text><text xml:space="preserve" font-family="Helvetica-Light,Helvetica" font-size="112.0" fill="#000000" transform="matrix(1.00, 0.00, -0.00, -1.00, 1313.5, 874.8)">r</text><text xml:space="preserve" font-family="Helvetica-Light,Helvetica" font-size="28.1" fill="#000000" transform="matrix(1.00, 0.00, -0.00, -1.00, 137.0, 783.2)">•</text><text xml:space="preserve" font-family="Helvetica-Light,Helvetica" font-size="37.4" fill="#000000" transform="matrix(1.00, 0.00, -0.00, -1.00, 173.0, 779.6)">J</text><text xml:space="preserve" font-family="Helvetica-Light,Helvetica" font-size="37.4" fill="#000000" transform="matrix(1.00, 0.00, -0.00, -1.00, 191.7, 779.6)">u</text><text xml:space="preserve" font-family="Helvetica-Light,Helvetica" font-size="37.4" fill="#000000" transform="matrix(1.00, 0.00, -0.00, -1.00, 212.5, 779.6)">s</text><text xml:space="preserve" font-family="Helvetica-Light,Helvetica" font-size="37.4" fill="#000000" transform="matrix(1.00, 0.00, -0.00, -1.00, 231.3, 779.6)">t</text><text xml:space="preserve" font-family="Helvetica-Light,Helvetica" font-size="37.4" fill="#000000" transform="matrix(1.00, 0.00, -0.00, -1.00, 241.7, 779.6)"> </text><text xml:space="preserve" font-family="Helvetica-Light,Helvetica" font-size="37.4" fill="#000000" transform="matrix(1.00, 0.00, -0.00, -1.00, 252.1, 779.6)">d</text><text xml:space="preserve" font-family="Helvetica-Light,Helvetica" font-size="37.4" fill="#000000" transform="matrix(1.00, 0.00, -0.00, -1.00, 274.9, 779.6)">o</text><text xml:space="preserve" font-family="Helvetica-Light,Helvetica" font-size="37.4" fill="#000000" transform="matrix(1.00, 0.00, -0.00, -1.00, 295.8, 779.6)">n</text><text xml:space="preserve" font-family="Helvetica-Light,Helvetica" font-size="37.4" fill="#000000" transform="matrix(1.00, 0.00, -0.00, -1.00, 316.6, 779.6)">’</text><text xml:space="preserve" font-family="Helvetica-Light,Helvetica" font-size="37.4" fill="#000000" transform="matrix(1.00, 0.00, -0.00, -1.00, 324.2, 779.6)">t</text><text xml:space="preserve" font-family="Helvetica-Light,Helvetica" font-size="37.4" fill="#000000" transform="matrix(1.00, 0.00, -0.00, -1.00, 334.6, 779.6)"> </text><text xml:space="preserve" font-family="Helvetica-Light,Helvetica" font-size="37.4" fill="#000000" transform="matrix(1.00, 0.00, -0.00, -1.00, 345.0, 779.6)">u</text><text xml:space="preserve" font-family="Helvetica-Light,Helvetica" font-size="37.4" fill="#000000" transform="matrix(1.00, 0.00, -0.00, -1.00, 365.9, 779.6)">s</text><text xml:space="preserve" font-family="Helvetica-Light,Helvetica" font-size="37.4" fill="#000000" transform="matrix(1.00, 0.00, -0.00, -1.00, 384.6, 779.6)">e</text><text xml:space="preserve" font-family="Helvetica-Light,Helvetica" font-size="37.4" fill="#000000" transform="matrix(1.00, 0.00, -0.00, -1.00, 405.4, 779.6)"> </text><text xml:space="preserve" font-family="Courier,Courier" font-size="37.4" fill="#000000" transform="matrix(1.00, 0.00, -0.00, -1.00, 415.8, 779.6)">e</text><text xml:space="preserve" font-family="Courier,Courier" font-size="37.4" fill="#000000" transform="matrix(1.00, 0.00, -0.00, -1.00, 438.3, 779.6)">d</text><text xml:space="preserve" font-family="Helvetica-Light,Helvetica" font-size="28.1" fill="#000000" transform="matrix(1.00, 0.00, -0.00, -1.00, 137.0, 695.4)">•</text><text xml:space="preserve" font-family="Courier,Courier" font-size="37.4" fill="#000000" transform="matrix(1.00, 0.00, -0.00, -1.00, 173.0, 693.1)">:</text><text xml:space="preserve" font-family="Courier,Courier" font-size="37.4" fill="#000000" transform="matrix(1.00, 0.00, -0.00, -1.00, 195.5, 693.1)">%</text><text xml:space="preserve" font-family="Courier,Courier" font-size="37.4" fill="#000000" transform="matrix(1.00, 0.00, -0.00, -1.00, 217.9, 693.1)">s</text><text xml:space="preserve" font-family="Courier,Courier" font-size="37.4" fill="#000000" transform="matrix(1.00, 0.00, -0.00, -1.00, 240.4, 693.1)">/</text><text xml:space="preserve" font-family="Courier,Courier" font-size="37.4" fill="#000000" transform="matrix(1.00, 0.00, -0.00, -1.00, 262.9, 693.1)">\</text><text xml:space="preserve" font-family="Courier,Courier" font-size="37.4" fill="#000000" transform="matrix(1.00, 0.00, -0.00, -1.00, 285.3, 693.1)">~</text><text xml:space="preserve" font-family="Courier,Courier" font-size="37.4" fill="#000000" transform="matrix(1.00, 0.00, -0.00, -1.00, 307.8, 693.1)">\</text><text xml:space="preserve" font-family="Courier,Courier" font-size="37.4" fill="#000000" transform="matrix(1.00, 0.00, -0.00, -1.00, 330.3, 693.1)">/</text><text xml:space="preserve" font-family="Courier,Courier" font-size="37.4" fill="#000000" transform="matrix(1.00, 0.00, -0.00, -1.00, 352.7, 693.1)">D</text><text xml:space="preserve" font-family="Courier,Courier" font-size="37.4" fill="#000000" transform="matrix(1.00, 0.00, -0.00, -1.00, 375.2, 693.1)">o</text><text xml:space="preserve" font-family="Courier,Courier" font-size="37.4" fill="#000000" transform="matrix(1.00, 0.00, -0.00, -1.00, 397.7, 693.1)">c</text><text xml:space="preserve" font-family="Courier,Courier" font-size="37.4" fill="#000000" transform="matrix(1.00, 0.00, -0.00, -1.00, 420.1, 693.1)">u</text><text xml:space="preserve" font-family="Courier,Courier" font-size="37.4" fill="#000000" transform="matrix(1.00, 0.00, -0.00, -1.00, 442.6, 693.1)">m</text><text xml:space="preserve" font-family="Courier,Courier" font-size="37.4" fill="#000000" transform="matrix(1.00, 0.00, -0.00, -1.00, 465.1, 693.1)">e</text><text xml:space="preserve" font-family="Courier,Courier" font-size="37.4" fill="#000000" transform="matrix(1.00, 0.00, -0.00, -1.00, 487.5, 693.1)">n</text><text xml:space="preserve" font-family="Courier,Courier" font-size="37.4" fill="#000000" transform="matrix(1.00, 0.00, -0.00, -1.00, 510.0, 693.1)">t</text><text xml:space="preserve" font-family="Courier,Courier" font-size="37.4" fill="#000000" transform="matrix(1.00, 0.00, -0.00, -1.00, 532.5, 693.1)">s</text><text xml:space="preserve" font-family="Courier,Courier" font-size="37.4" fill="#000000" transform="matrix(1.00, 0.00, -0.00, -1.00, 555.0, 693.1)">/</text><text xml:space="preserve" font-family="Courier,Courier" font-size="37.4" fill="#000000" transform="matrix(1.00, 0.00, -0.00, -1.00, 577.4, 693.1)">\</text><text xml:space="preserve" font-family="Courier,Courier" font-size="37.4" fill="#000000" transform="matrix(1.00, 0.00, -0.00, -1.00, 599.9, 693.1)">~</text><text xml:space="preserve" font-family="Courier,Courier" font-size="37.4" fill="#000000" transform="matrix(1.00, 0.00, -0.00, -1.00, 622.4, 693.1)">\</text><text xml:space="preserve" font-family="Courier,Courier" font-size="37.4" fill="#000000" transform="matrix(1.00, 0.00, -0.00, -1.00, 644.8, 693.1)">/</text><text xml:space="preserve" font-family="Courier,Courier" font-size="37.4" fill="#000000" transform="matrix(1.00, 0.00, -0.00, -1.00, 667.3, 693.1)">S</text><text xml:space="preserve" font-family="Courier,Courier" font-size="37.4" fill="#000000" transform="matrix(1.00, 0.00, -0.00, -1.00, 689.8, 693.1)">i</text><text xml:space="preserve" font-family="Courier,Courier" font-size="37.4" fill="#000000" transform="matrix(1.00, 0.00, -0.00, -1.00, 712.2, 693.1)">t</text><text xml:space="preserve" font-family="Courier,Courier" font-size="37.4" fill="#000000" transform="matrix(1.00, 0.00, -0.00, -1.00, 734.7, 693.1)">e</text><text xml:space="preserve" font-family="Courier,Courier" font-size="37.4" fill="#000000" transform="matrix(1.00, 0.00, -0.00, -1.00, 757.2, 693.1)">s</text><text xml:space="preserve" font-family="Courier,Courier" font-size="37.4" fill="#000000" transform="matrix(1.00, 0.00, -0.00, -1.00, 779.6, 693.1)">/</text><text xml:space="preserve" font-family="Courier,Courier" font-size="37.4" fill="#000000" transform="matrix(1.00, 0.00, -0.00, -1.00, 802.1, 693.1)">g</text><text xml:space="preserve" font-family="Courier,Courier" font-size="37.4" fill="#000000" transform="matrix(1.00, 0.00, -0.00, -1.00, 824.6, 693.1)">c</text><text xml:space="preserve" font-family="Courier,Courier" font-size="37.4" fill="#000000" transform="matrix(1.00, 0.00, -0.00, -1.00, 847.0, 693.1)"> </text><text xml:space="preserve" font-family="Helvetica-Light,Helvetica" font-size="37.4" fill="#000000" transform="matrix(1.00, 0.00, -0.00, -1.00, 173.0, 646.5)">S</text><text xml:space="preserve" font-family="Helvetica-Light,Helvetica" font-size="37.4" fill="#000000" transform="matrix(1.00, 0.00, -0.00, -1.00, 195.9, 646.5)">e</text><text xml:space="preserve" font-family="Helvetica-Light,Helvetica" font-size="37.4" fill="#000000" transform="matrix(1.00, 0.00, -0.00, -1.00, 216.7, 646.5)">a</text><text xml:space="preserve" font-family="Helvetica-Light,Helvetica" font-size="37.4" fill="#000000" transform="matrix(1.00, 0.00, -0.00, -1.00, 237.5, 646.5)">r</text><text xml:space="preserve" font-family="Helvetica-Light,Helvetica" font-size="37.4" fill="#000000" transform="matrix(1.00, 0.00, -0.00, -1.00, 249.3, 646.5)">c</text><text xml:space="preserve" font-family="Helvetica-Light,Helvetica" font-size="37.4" fill="#000000" transform="matrix(1.00, 0.00, -0.00, -1.00, 270.1, 646.5)">h</text><text xml:space="preserve" font-family="Helvetica-Light,Helvetica" font-size="37.4" fill="#000000" transform="matrix(1.00, 0.00, -0.00, -1.00, 290.9, 646.5)"> </text><text xml:space="preserve" font-family="Helvetica-Light,Helvetica" font-size="37.4" fill="#000000" transform="matrix(1.00, 0.00, -0.00, -1.00, 301.3, 646.5)">a</text><text xml:space="preserve" font-family="Helvetica-Light,Helvetica" font-size="37.4" fill="#000000" transform="matrix(1.00, 0.00, -0.00, -1.00, 322.2, 646.5)">n</text><text xml:space="preserve" font-family="Helvetica-Light,Helvetica" font-size="37.4" fill="#000000" transform="matrix(1.00, 0.00, -0.00, -1.00, 343.0, 646.5)">d</text><text xml:space="preserve" font-family="Helvetica-Light,Helvetica" font-size="37.4" fill="#000000" transform="matrix(1.00, 0.00, -0.00, -1.00, 365.9, 646.5)"> </text><text xml:space="preserve" font-family="Helvetica-Light,Helvetica" font-size="37.4" fill="#000000" transform="matrix(1.00, 0.00, -0.00, -1.00, 376.3, 646.5)">r</text><text xml:space="preserve" font-family="Helvetica-Light,Helvetica" font-size="37.4" fill="#000000" transform="matrix(1.00, 0.00, -0.00, -1.00, 388.1, 646.5)">e</text><text xml:space="preserve" font-family="Helvetica-Light,Helvetica" font-size="37.4" fill="#000000" transform="matrix(1.00, 0.00, -0.00, -1.00, 408.9, 646.5)">p</text><text xml:space="preserve" font-family="Helvetica-Light,Helvetica" font-size="37.4" fill="#000000" transform="matrix(1.00, 0.00, -0.00, -1.00, 431.7, 646.5)">l</text><text xml:space="preserve" font-family="Helvetica-Light,Helvetica" font-size="37.4" fill="#000000" transform="matrix(1.00, 0.00, -0.00, -1.00, 440.1, 646.5)">a</text><text xml:space="preserve" font-family="Helvetica-Light,Helvetica" font-size="37.4" fill="#000000" transform="matrix(1.00, 0.00, -0.00, -1.00, 460.9, 646.5)">c</text><text xml:space="preserve" font-family="Helvetica-Light,Helvetica" font-size="37.4" fill="#000000" transform="matrix(1.00, 0.00, -0.00, -1.00, 481.7, 646.5)">e</text><text xml:space="preserve" font-family="Helvetica-Light,Helvetica" font-size="28.1" fill="#000000" transform="matrix(1.00, 0.00, -0.00, -1.00, 137.0, 562.9)">•</text><text xml:space="preserve" font-family="Courier,Courier" font-size="37.4" fill="#000000" transform="matrix(1.00, 0.00, -0.00, -1.00, 173.0, 560.7)">:</text><text xml:space="preserve" font-family="Courier,Courier" font-size="37.4" fill="#000000" transform="matrix(1.00, 0.00, -0.00, -1.00, 195.5, 560.7)">r</text><text xml:space="preserve" font-family="Courier,Courier" font-size="37.4" fill="#000000" transform="matrix(1.00, 0.00, -0.00, -1.00, 217.9, 560.7)">e</text><text xml:space="preserve" font-family="Courier,Courier" font-size="37.4" fill="#000000" transform="matrix(1.00, 0.00, -0.00, -1.00, 240.4, 560.7)">t</text><text xml:space="preserve" font-family="Courier,Courier" font-size="37.4" fill="#000000" transform="matrix(1.00, 0.00, -0.00, -1.00, 262.9, 560.7)">a</text><text xml:space="preserve" font-family="Courier,Courier" font-size="37.4" fill="#000000" transform="matrix(1.00, 0.00, -0.00, -1.00, 285.3, 560.7)">b</text><text xml:space="preserve" font-family="Helvetica-Light,Helvetica" font-size="28.1" fill="#000000" transform="matrix(1.00, 0.00, -0.00, -1.00, 137.0, 475.1)">•</text><text xml:space="preserve" font-family="Courier,Courier" font-size="37.4" fill="#000000" transform="matrix(1.00, 0.00, -0.00, -1.00, 173.0, 471.6)">:</text><text xml:space="preserve" font-family="Courier,Courier" font-size="37.4" fill="#000000" transform="matrix(1.00, 0.00, -0.00, -1.00, 195.5, 471.6)">s</text><text xml:space="preserve" font-family="Courier,Courier" font-size="37.4" fill="#000000" transform="matrix(1.00, 0.00, -0.00, -1.00, 217.9, 471.6)">e</text><text xml:space="preserve" font-family="Courier,Courier" font-size="37.4" fill="#000000" transform="matrix(1.00, 0.00, -0.00, -1.00, 240.4, 471.6)">t</text><text xml:space="preserve" font-family="Courier,Courier" font-size="37.4" fill="#000000" transform="matrix(1.00, 0.00, -0.00, -1.00, 262.9, 471.6)"> </text><text xml:space="preserve" font-family="Courier,Courier" font-size="37.4" fill="#000000" transform="matrix(1.00, 0.00, -0.00, -1.00, 285.3, 471.6)">s</text><text xml:space="preserve" font-family="Courier,Courier" font-size="37.4" fill="#000000" transform="matrix(1.00, 0.00, -0.00, -1.00, 307.8, 471.6)">w</text><text xml:space="preserve" font-family="Courier,Courier" font-size="37.4" fill="#000000" transform="matrix(1.00, 0.00, -0.00, -1.00, 330.3, 471.6)">=</text><text xml:space="preserve" font-family="Courier,Courier" font-size="37.4" fill="#000000" transform="matrix(1.00, 0.00, -0.00, -1.00, 352.7, 471.6)">n</text><text xml:space="preserve" font-family="Courier,Courier" font-size="37.4" fill="#000000" transform="matrix(1.00, 0.00, -0.00, -1.00, 375.2, 471.6)">u</text><text xml:space="preserve" font-family="Courier,Courier" font-size="37.4" fill="#000000" transform="matrix(1.00, 0.00, -0.00, -1.00, 397.7, 471.6)">m</text><text xml:space="preserve" font-family="Courier,Courier" font-size="37.4" fill="#000000" transform="matrix(1.00, 0.00, -0.00, -1.00, 420.1, 471.6)"> </text><text xml:space="preserve" font-family="Helvetica-Light,Helvetica" font-size="37.4" fill="#000000" transform="matrix(1.00, 0.00, -0.00, -1.00, 442.6, 471.6)">ﬁ</text><text xml:space="preserve" font-family="Helvetica-Light,Helvetica" font-size="37.4" fill="#000000" transform="matrix(1.00, 0.00, -0.00, -1.00, 461.3, 471.6)">r</text><text xml:space="preserve" font-family="Helvetica-Light,Helvetica" font-size="37.4" fill="#000000" transform="matrix(1.00, 0.00, -0.00, -1.00, 473.8, 471.6)">s</text><text xml:space="preserve" font-family="Helvetica-Light,Helvetica" font-size="37.4" fill="#000000" transform="matrix(1.00, 0.00, -0.00, -1.00, 492.5, 471.6)">t</text><text xml:space="preserve" font-family="Helvetica-Light,Helvetica" font-size="28.1" fill="#000000" transform="matrix(1.00, 0.00, -0.00, -1.00, 137.0, 387.3)">•</text><text xml:space="preserve" font-family="Courier,Courier" font-size="37.4" fill="#000000" transform="matrix(1.00, 0.00, -0.00, -1.00, 173.0, 385.1)">:</text><text xml:space="preserve" font-family="Courier,Courier" font-size="37.4" fill="#000000" transform="matrix(1.00, 0.00, -0.00, -1.00, 195.5, 385.1)">s</text><text xml:space="preserve" font-family="Courier,Courier" font-size="37.4" fill="#000000" transform="matrix(1.00, 0.00, -0.00, -1.00, 217.9, 385.1)">e</text><text xml:space="preserve" font-family="Courier,Courier" font-size="37.4" fill="#000000" transform="matrix(1.00, 0.00, -0.00, -1.00, 240.4, 385.1)">t</text><text xml:space="preserve" font-family="Courier,Courier" font-size="37.4" fill="#000000" transform="matrix(1.00, 0.00, -0.00, -1.00, 262.9, 385.1)"> </text><text xml:space="preserve" font-family="Courier,Courier" font-size="37.4" fill="#000000" transform="matrix(1.00, 0.00, -0.00, -1.00, 285.3, 385.1)">p</text><text xml:space="preserve" font-family="Courier,Courier" font-size="37.4" fill="#000000" transform="matrix(1.00, 0.00, -0.00, -1.00, 307.8, 385.1)">a</text><text xml:space="preserve" font-family="Courier,Courier" font-size="37.4" fill="#000000" transform="matrix(1.00, 0.00, -0.00, -1.00, 330.3, 385.1)">s</text><text xml:space="preserve" font-family="Courier,Courier" font-size="37.4" fill="#000000" transform="matrix(1.00, 0.00, -0.00, -1.00, 352.7, 385.1)">t</text><text xml:space="preserve" font-family="Courier,Courier" font-size="37.4" fill="#000000" transform="matrix(1.00, 0.00, -0.00, -1.00, 375.2, 385.1)">e</text><text xml:space="preserve" font-family="Courier,Courier" font-size="37.4" fill="#000000" transform="matrix(1.00, 0.00, -0.00, -1.00, 397.7, 385.1)">,</text><text xml:space="preserve" font-family="Courier,Courier" font-size="37.4" fill="#000000" transform="matrix(1.00, 0.00, -0.00, -1.00, 420.1, 385.1)"> </text><text xml:space="preserve" font-family="Courier,Courier" font-size="37.4" fill="#000000" transform="matrix(1.00, 0.00, -0.00, -1.00, 442.6, 385.1)">s</text><text xml:space="preserve" font-family="Courier,Courier" font-size="37.4" fill="#000000" transform="matrix(1.00, 0.00, -0.00, -1.00, 465.1, 385.1)">e</text><text xml:space="preserve" font-family="Courier,Courier" font-size="37.4" fill="#000000" transform="matrix(1.00, 0.00, -0.00, -1.00, 487.6, 385.1)">t</text><text xml:space="preserve" font-family="Courier,Courier" font-size="37.4" fill="#000000" transform="matrix(1.00, 0.00, -0.00, -1.00, 510.0, 385.1)"> </text><text xml:space="preserve" font-family="Courier,Courier" font-size="37.4" fill="#000000" transform="matrix(1.00, 0.00, -0.00, -1.00, 532.5, 385.1)">n</text><text xml:space="preserve" font-family="Courier,Courier" font-size="37.4" fill="#000000" transform="matrix(1.00, 0.00, -0.00, -1.00, 555.0, 385.1)">o</text><text xml:space="preserve" font-family="Courier,Courier" font-size="37.4" fill="#000000" transform="matrix(1.00, 0.00, -0.00, -1.00, 577.4, 385.1)">p</text><text xml:space="preserve" font-family="Courier,Courier" font-size="37.4" fill="#000000" transform="matrix(1.00, 0.00, -0.00, -1.00, 599.9, 385.1)">a</text><text xml:space="preserve" font-family="Courier,Courier" font-size="37.4" fill="#000000" transform="matrix(1.00, 0.00, -0.00, -1.00, 622.4, 385.1)">s</text><text xml:space="preserve" font-family="Courier,Courier" font-size="37.4" fill="#000000" transform="matrix(1.00, 0.00, -0.00, -1.00, 644.8, 385.1)">t</text><text xml:space="preserve" font-family="Courier,Courier" font-size="37.4" fill="#000000" transform="matrix(1.00, 0.00, -0.00, -1.00, 667.3, 385.1)">e</text><text xml:space="preserve" font-family="Helvetica-Light,Helvetica" font-size="28.1" fill="#000000" transform="matrix(1.00, 0.00, -0.00, -1.00, 137.0, 299.6)">•</text><text xml:space="preserve" font-family="Courier,Courier" font-size="37.4" fill="#000000" transform="matrix(1.00, 0.00, -0.00, -1.00, 173.0, 296.0)">^</text><text xml:space="preserve" font-family="Courier,Courier" font-size="37.4" fill="#000000" transform="matrix(1.00, 0.00, -0.00, -1.00, 195.5, 296.0)">d</text><text xml:space="preserve" font-family="Courier,Courier" font-size="37.4" fill="#000000" transform="matrix(1.00, 0.00, -0.00, -1.00, 217.9, 296.0)"> </text><text xml:space="preserve" font-family="Helvetica-Light,Helvetica" font-size="37.4" fill="#000000" transform="matrix(1.00, 0.00, -0.00, -1.00, 240.4, 296.0)">(</text><text xml:space="preserve" font-family="Helvetica-Light,Helvetica" font-size="37.4" fill="#000000" transform="matrix(1.00, 0.00, -0.00, -1.00, 252.9, 296.0)">H</text><text xml:space="preserve" font-family="Helvetica-Light,Helvetica" font-size="37.4" fill="#000000" transform="matrix(1.00, 0.00, -0.00, -1.00, 279.9, 296.0)">a</text><text xml:space="preserve" font-family="Helvetica-Light,Helvetica" font-size="37.4" fill="#000000" transform="matrix(1.00, 0.00, -0.00, -1.00, 300.7, 296.0)">l</text><text xml:space="preserve" font-family="Helvetica-Light,Helvetica" font-size="37.4" fill="#000000" transform="matrix(1.00, 0.00, -0.00, -1.00, 309.0, 296.0)">f</text><text xml:space="preserve" font-family="Helvetica-Light,Helvetica" font-size="37.4" fill="#000000" transform="matrix(1.00, 0.00, -0.00, -1.00, 319.4, 296.0)"> </text><text xml:space="preserve" font-family="Helvetica-Light,Helvetica" font-size="37.4" fill="#000000" transform="matrix(1.00, 0.00, -0.00, -1.00, 329.8, 296.0)">p</text><text xml:space="preserve" font-family="Helvetica-Light,Helvetica" font-size="37.4" fill="#000000" transform="matrix(1.00, 0.00, -0.00, -1.00, 352.7, 296.0)">a</text><text xml:space="preserve" font-family="Helvetica-Light,Helvetica" font-size="37.4" fill="#000000" transform="matrix(1.00, 0.00, -0.00, -1.00, 373.5, 296.0)">g</text><text xml:space="preserve" font-family="Helvetica-Light,Helvetica" font-size="37.4" fill="#000000" transform="matrix(1.00, 0.00, -0.00, -1.00, 396.4, 296.0)">e</text><text xml:space="preserve" font-family="Helvetica-Light,Helvetica" font-size="37.4" fill="#000000" transform="matrix(1.00, 0.00, -0.00, -1.00, 417.2, 296.0)"> </text><text xml:space="preserve" font-family="Helvetica-Light,Helvetica" font-size="37.4" fill="#000000" transform="matrix(1.00, 0.00, -0.00, -1.00, 427.6, 296.0)">d</text><text xml:space="preserve" font-family="Helvetica-Light,Helvetica" font-size="37.4" fill="#000000" transform="matrix(1.00, 0.00, -0.00, -1.00, 450.5, 296.0)">o</text><text xml:space="preserve" font-family="Helvetica-Light,Helvetica" font-size="37.4" fill="#000000" transform="matrix(1.00, 0.00, -0.00, -1.00, 471.3, 296.0)">w</text><text xml:space="preserve" font-family="Helvetica-Light,Helvetica" font-size="37.4" fill="#000000" transform="matrix(1.00, 0.00, -0.00, -1.00, 498.4, 296.0)">n</text><text xml:space="preserve" font-family="Helvetica-Light,Helvetica" font-size="37.4" fill="#000000" transform="matrix(1.00, 0.00, -0.00, -1.00, 519.2, 296.0)">)</text><text xml:space="preserve" font-family="Helvetica-Light,Helvetica" font-size="28.1" fill="#000000" transform="matrix(1.00, 0.00, -0.00, -1.00, 137.0, 210.5)">•</text><text xml:space="preserve" font-family="Courier,Courier" font-size="37.4" fill="#000000" transform="matrix(1.00, 0.00, -0.00, -1.00, 173.0, 206.9)">^</text><text xml:space="preserve" font-family="Courier,Courier" font-size="37.4" fill="#000000" transform="matrix(1.00, 0.00, -0.00, -1.00, 195.5, 206.9)">u</text><text xml:space="preserve" font-family="Courier,Courier" font-size="37.4" fill="#000000" transform="matrix(1.00, 0.00, -0.00, -1.00, 217.9, 206.9)"> </text><text xml:space="preserve" font-family="Helvetica-Light,Helvetica" font-size="37.4" fill="#000000" transform="matrix(1.00, 0.00, -0.00, -1.00, 240.4, 206.9)">(</text><text xml:space="preserve" font-family="Helvetica-Light,Helvetica" font-size="37.4" fill="#000000" transform="matrix(1.00, 0.00, -0.00, -1.00, 252.9, 206.9)">H</text><text xml:space="preserve" font-family="Helvetica-Light,Helvetica" font-size="37.4" fill="#000000" transform="matrix(1.00, 0.00, -0.00, -1.00, 279.9, 206.9)">a</text><text xml:space="preserve" font-family="Helvetica-Light,Helvetica" font-size="37.4" fill="#000000" transform="matrix(1.00, 0.00, -0.00, -1.00, 300.7, 206.9)">l</text><text xml:space="preserve" font-family="Helvetica-Light,Helvetica" font-size="37.4" fill="#000000" transform="matrix(1.00, 0.00, -0.00, -1.00, 309.0, 206.9)">f</text><text xml:space="preserve" font-family="Helvetica-Light,Helvetica" font-size="37.4" fill="#000000" transform="matrix(1.00, 0.00, -0.00, -1.00, 319.4, 206.9)"> </text><text xml:space="preserve" font-family="Helvetica-Light,Helvetica" font-size="37.4" fill="#000000" transform="matrix(1.00, 0.00, -0.00, -1.00, 329.8, 206.9)">p</text><text xml:space="preserve" font-family="Helvetica-Light,Helvetica" font-size="37.4" fill="#000000" transform="matrix(1.00, 0.00, -0.00, -1.00, 352.7, 206.9)">a</text><text xml:space="preserve" font-family="Helvetica-Light,Helvetica" font-size="37.4" fill="#000000" transform="matrix(1.00, 0.00, -0.00, -1.00, 373.5, 206.9)">g</text><text xml:space="preserve" font-family="Helvetica-Light,Helvetica" font-size="37.4" fill="#000000" transform="matrix(1.00, 0.00, -0.00, -1.00, 396.4, 206.9)">e</text><text xml:space="preserve" font-family="Helvetica-Light,Helvetica" font-size="37.4" fill="#000000" transform="matrix(1.00, 0.00, -0.00, -1.00, 417.2, 206.9)"> </text><text xml:space="preserve" font-family="Helvetica-Light,Helvetica" font-size="37.4" fill="#000000" transform="matrix(1.00, 0.00, -0.00, -1.00, 427.6, 206.9)">u</text><text xml:space="preserve" font-family="Helvetica-Light,Helvetica" font-size="37.4" fill="#000000" transform="matrix(1.00, 0.00, -0.00, -1.00, 448.5, 206.9)">p</text><text xml:space="preserve" font-family="Helvetica-Light,Helvetica" font-size="37.4" fill="#000000" transform="matrix(1.00, 0.00, -0.00, -1.00, 471.3, 206.9)">)</text><text xml:space="preserve" font-family="Helvetica-Light,Helvetica" font-size="28.1" fill="#000000" transform="matrix(1.00, 0.00, -0.00, -1.00, 137.0, 121.4)">•</text><text xml:space="preserve" font-family="Courier,Courier" font-size="37.4" fill="#000000" transform="matrix(1.00, 0.00, -0.00, -1.00, 173.0, 117.8)">'</text><text xml:space="preserve" font-family="Courier,Courier" font-size="37.4" fill="#000000" transform="matrix(1.00, 0.00, -0.00, -1.00, 195.5, 117.8)">'</text><text xml:space="preserve" font-family="Courier,Courier" font-size="37.4" fill="#000000" transform="matrix(1.00, 0.00, -0.00, -1.00, 217.9, 117.8)"> </text><text xml:space="preserve" font-family="Helvetica-Light,Helvetica" font-size="37.4" fill="#000000" transform="matrix(1.00, 0.00, -0.00, -1.00, 240.4, 117.8)">(</text><text xml:space="preserve" font-family="Helvetica-Light,Helvetica" font-size="37.4" fill="#000000" transform="matrix(1.00, 0.00, -0.00, -1.00, 252.9, 117.8)">G</text><text xml:space="preserve" font-family="Helvetica-Light,Helvetica" font-size="37.4" fill="#000000" transform="matrix(1.00, 0.00, -0.00, -1.00, 282.0, 117.8)">o</text><text xml:space="preserve" font-family="Helvetica-Light,Helvetica" font-size="37.4" fill="#000000" transform="matrix(1.00, 0.00, -0.00, -1.00, 302.8, 117.8)"> </text><text xml:space="preserve" font-family="Helvetica-Light,Helvetica" font-size="37.4" fill="#000000" transform="matrix(1.00, 0.00, -0.00, -1.00, 313.2, 117.8)">t</text><text xml:space="preserve" font-family="Helvetica-Light,Helvetica" font-size="37.4" fill="#000000" transform="matrix(1.00, 0.00, -0.00, -1.00, 323.6, 117.8)">o</text><text xml:space="preserve" font-family="Helvetica-Light,Helvetica" font-size="37.4" fill="#000000" transform="matrix(1.00, 0.00, -0.00, -1.00, 344.4, 117.8)"> </text><text xml:space="preserve" font-family="Helvetica-Light,Helvetica" font-size="37.4" fill="#000000" transform="matrix(1.00, 0.00, -0.00, -1.00, 354.9, 117.8)">l</text><text xml:space="preserve" font-family="Helvetica-Light,Helvetica" font-size="37.4" fill="#000000" transform="matrix(1.00, 0.00, -0.00, -1.00, 363.2, 117.8)">a</text><text xml:space="preserve" font-family="Helvetica-Light,Helvetica" font-size="37.4" fill="#000000" transform="matrix(1.00, 0.00, -0.00, -1.00, 384.0, 117.8)">s</text><text xml:space="preserve" font-family="Helvetica-Light,Helvetica" font-size="37.4" fill="#000000" transform="matrix(1.00, 0.00, -0.00, -1.00, 402.7, 117.8)">t</text><text xml:space="preserve" font-family="Helvetica-Light,Helvetica" font-size="37.4" fill="#000000" transform="matrix(1.00, 0.00, -0.00, -1.00, 413.1, 117.8)"> </text><text xml:space="preserve" font-family="Helvetica-Light,Helvetica" font-size="37.4" fill="#000000" transform="matrix(1.00, 0.00, -0.00, -1.00, 423.5, 117.8)">p</text><text xml:space="preserve" font-family="Helvetica-Light,Helvetica" font-size="37.4" fill="#000000" transform="matrix(1.00, 0.00, -0.00, -1.00, 446.4, 117.8)">o</text><text xml:space="preserve" font-family="Helvetica-Light,Helvetica" font-size="37.4" fill="#000000" transform="matrix(1.00, 0.00, -0.00, -1.00, 467.2, 117.8)">s</text><text xml:space="preserve" font-family="Helvetica-Light,Helvetica" font-size="37.4" fill="#000000" transform="matrix(1.00, 0.00, -0.00, -1.00, 485.9, 117.8)">i</text><text xml:space="preserve" font-family="Helvetica-Light,Helvetica" font-size="37.4" fill="#000000" transform="matrix(1.00, 0.00, -0.00, -1.00, 494.2, 117.8)">t</text><text xml:space="preserve" font-family="Helvetica-Light,Helvetica" font-size="37.4" fill="#000000" transform="matrix(1.00, 0.00, -0.00, -1.00, 504.7, 117.8)">i</text><text xml:space="preserve" font-family="Helvetica-Light,Helvetica" font-size="37.4" fill="#000000" transform="matrix(1.00, 0.00, -0.00, -1.00, 513.0, 117.8)">o</text><text xml:space="preserve" font-family="Helvetica-Light,Helvetica" font-size="37.4" fill="#000000" transform="matrix(1.00, 0.00, -0.00, -1.00, 533.8, 117.8)">n</text><text xml:space="preserve" font-family="Helvetica-Light,Helvetica" font-size="37.4" fill="#000000" transform="matrix(1.00, 0.00, -0.00, -1.00, 554.6, 117.8)">)</text></g></svg>